<?xml version="1.0" encoding="utf-8"?>
<!-- Generator: Adobe Illustrator 15.0.0, SVG Export Plug-In . SVG Version: 6.00 Build 0)  -->
<!DOCTYPE svg PUBLIC "-//W3C//DTD SVG 1.1//EN" "http://www.w3.org/Graphics/SVG/1.1/DTD/svg11.dtd">
<svg version="1.1" id="Warstwa_1" xmlns="http://www.w3.org/2000/svg" xmlns:xlink="http://www.w3.org/1999/xlink" x="0px" y="0px"
	 width="1024px" height="768px" viewBox="0 0 1024 768" enable-background="new 0 0 1024 768" xml:space="preserve">
<g>
	<path fill="none" stroke="#000000" stroke-miterlimit="10" d="M118.156,282.494c0,55.844,117.614-25.921,257.143-29.87
		c137.662-3.896,176.423,82.646,210.39,81.818c53.246-1.298,187.013-96.104,187.013-96.104"/>
	<path fill="none" stroke="#000000" stroke-miterlimit="10" d="M117.587,291.828c0,55.844,121.107-41.5,260.633-44.886
		c135.795-3.409,172.365,99.478,208.036,95.535c50.922-5.628,178.059-99.153,178.059-99.153"/>
	<path fill="none" stroke="#000000" stroke-miterlimit="10" d="M117.02,301.163c0,55.844,124.599-57.078,264.124-59.903
		c133.928-2.922,167.957,116.474,205.682,109.253C635.21,341.251,755.93,248.31,755.93,248.31"/>
	<path fill="none" stroke="#000000" stroke-miterlimit="10" d="M116.451,310.497c0,55.844,128.091-72.656,267.614-74.918
		c132.062-2.435,163.305,133.678,203.328,122.97c45.755-12.242,160.152-105.252,160.152-105.252"/>
	<path fill="none" stroke="#000000" stroke-miterlimit="10" d="M115.883,319.831c0,55.844,131.584-88.234,271.104-89.935
		c130.194-1.948,158.51,151.123,200.974,136.688c43.118-14.658,151.198-108.301,151.198-108.301"/>
	<path fill="none" stroke="#000000" stroke-miterlimit="10" d="M115.315,329.166c0,55.844,135.076-103.812,274.594-104.951
		c128.327-1.461,153.667,168.832,198.62,150.406c40.533-16.614,142.244-111.352,142.244-111.352"/>
	<path fill="none" stroke="#000000" stroke-miterlimit="10" d="M114.747,338.5c0,55.844,138.569-119.39,278.084-119.967
		c126.461-0.974,153.608,194.835,196.267,164.123c40.652-11.203,133.29-114.401,133.29-114.401"/>
	<path fill="none" stroke="#000000" stroke-miterlimit="10" d="M114.179,347.834c0,55.844,142.061-134.968,281.575-134.984
		c124.594-0.487,149.806,213.534,193.913,177.841c38.554-12.853,124.336-117.45,124.336-117.45"/>
	<path fill="none" stroke="#000000" stroke-miterlimit="10" d="M113.61,357.169c0,55.844,145.554-150.547,285.065-150
		c122.727,0,146.004,232.231,191.559,191.558c36.455-14.503,115.383-120.499,115.383-120.499"/>
	<path fill="none" stroke="#000000" stroke-miterlimit="10" d="M113.042,366.503c0,55.844,149.046-166.125,288.555-165.016
		c120.86,0.487,135.317,242.554,189.205,205.275c31.223-21.599,106.43-123.549,106.43-123.549"/>
	<path fill="none" stroke="#000000" stroke-miterlimit="10" d="M112.474,375.837c0,55.844,152.538-181.703,292.045-180.032
		c118.993,0.974,131.311,261.734,186.851,218.994c29.2-22.471,97.476-126.599,97.476-126.599"/>
	<path fill="none" stroke="#000000" stroke-miterlimit="10" d="M111.906,385.172c0,55.844,156.031-197.281,295.536-195.048
		c117.127,1.461,127.647,281.202,184.497,232.71c27.305-23.291,88.521-129.648,88.521-129.648"/>
	<path fill="none" stroke="#000000" stroke-miterlimit="10" d="M111.338,394.506c0,55.844,159.523-212.858,299.025-210.064
		c115.26,1.948,124.374,300.938,182.144,246.429c25.538-24.097,79.567-132.698,79.567-132.698"/>
	<path fill="none" stroke="#000000" stroke-miterlimit="10" d="M110.77,403.841c0,55.844,163.016-228.437,302.516-225.081
		c113.392,2.435,121.517,320.911,179.79,260.146c23.895-24.917,70.613-135.747,70.613-135.747"/>
	<path fill="none" stroke="#000000" stroke-miterlimit="10" d="M110.201,413.175c0,55.844,166.508-244.015,306.006-240.097
		C527.733,176,535.31,514.158,593.643,446.941c22.373-25.78,61.661-138.797,61.661-138.797"/>
	<path fill="none" stroke="#000000" stroke-miterlimit="10" d="M109.633,422.51c0,55.844,170-259.594,309.497-255.114
		c109.659,3.409,117.127,361.4,175.081,287.581c20.965-26.704,52.707-141.846,52.707-141.846"/>
	<path fill="none" stroke="#000000" stroke-miterlimit="10" d="M109.065,431.844c0,55.844,173.493-275.171,312.987-270.129
		c107.792,3.896,115.585,381.818,172.728,301.298c19.664-27.709,43.753-144.896,43.753-144.896"/>
</g>
<g>
	<path fill="none" stroke="#000000" stroke-miterlimit="10" d="M624.156,296.494c0,55.844,117.613-25.921,257.143-29.87
		c137.662-3.896,176.423,82.646,210.39,81.818c53.246-1.299,87.013-64.935,87.013-64.935"/>
	<path fill="none" stroke="#000000" stroke-miterlimit="10" d="M623.588,305.828c0,55.844,121.106-41.5,260.633-44.886
		c135.795-3.409,172.365,99.478,208.036,95.535c50.922-5.628,84.309-69.932,84.309-69.932"/>
	<path fill="none" stroke="#000000" stroke-miterlimit="10" d="M623.02,315.163c0,55.844,124.6-57.078,264.123-59.903
		c133.929-2.922,167.957,116.474,205.683,109.253c48.385-9.261,81.604-74.93,81.604-74.93"/>
	<path fill="none" stroke="#000000" stroke-miterlimit="10" d="M622.451,324.497c0,55.844,128.092-72.656,267.613-74.918
		c132.063-2.435,163.306,133.679,203.328,122.971c45.755-12.242,78.902-79.928,78.902-79.928"/>
	<path fill="none" stroke="#000000" stroke-miterlimit="10" d="M621.883,333.831c0,55.845,131.584-88.234,271.104-89.935
		c130.194-1.948,158.51,151.123,200.974,136.688c43.118-14.657,76.198-84.925,76.198-84.925"/>
	<path fill="none" stroke="#000000" stroke-miterlimit="10" d="M621.314,343.166c0,55.844,135.076-103.813,274.595-104.952
		c128.327-1.461,153.667,168.832,198.62,150.406c40.533-16.614,73.494-89.923,73.494-89.923"/>
	<path fill="none" stroke="#000000" stroke-miterlimit="10" d="M620.746,352.5c0,55.844,138.569-119.39,278.085-119.967
		c126.461-0.974,153.608,194.835,196.267,164.123c40.652-11.202,70.79-94.92,70.79-94.92"/>
	<path fill="none" stroke="#000000" stroke-miterlimit="10" d="M620.179,361.834c0,55.845,142.062-134.968,281.574-134.983
		c124.595-0.487,149.807,213.534,193.913,177.841c38.554-12.854,68.086-99.918,68.086-99.918"/>
	<path fill="none" stroke="#000000" stroke-miterlimit="10" d="M619.61,371.169c0,55.844,145.554-150.547,285.065-150
		c122.727,0,146.004,232.231,191.559,191.558c36.455-14.503,65.383-104.915,65.383-104.915"/>
	<path fill="none" stroke="#000000" stroke-miterlimit="10" d="M619.042,380.503c0,55.844,149.046-166.125,288.556-165.016
		c120.859,0.487,135.316,242.554,189.204,205.275c31.223-21.599,62.68-109.913,62.68-109.913"/>
	<path fill="none" stroke="#000000" stroke-miterlimit="10" d="M618.475,389.838c0,55.844,152.537-181.703,292.045-180.033
		c118.993,0.974,131.311,261.734,186.851,218.994c29.2-22.471,59.976-114.911,59.976-114.911"/>
	<path fill="none" stroke="#000000" stroke-miterlimit="10" d="M617.906,399.172c0,55.844,156.03-197.281,295.535-195.048
		c117.127,1.461,127.647,281.202,184.497,232.71c27.305-23.291,57.271-119.908,57.271-119.908"/>
	<path fill="none" stroke="#000000" stroke-miterlimit="10" d="M617.338,408.506c0,55.844,159.523-212.858,299.025-210.064
		c115.26,1.948,124.374,300.938,182.144,246.429c25.538-24.097,54.567-124.906,54.567-124.906"/>
	<path fill="none" stroke="#000000" stroke-miterlimit="10" d="M616.77,417.841c0,55.844,163.016-228.437,302.516-225.081
		c113.393,2.435,121.518,320.911,179.79,260.146c23.895-24.917,51.863-129.903,51.863-129.903"/>
	<path fill="none" stroke="#000000" stroke-miterlimit="10" d="M616.201,427.175c0,55.844,166.508-244.015,306.007-240.097
		c111.525,2.922,119.102,341.08,177.435,273.863c22.373-25.78,49.161-134.9,49.161-134.9"/>
	<path fill="none" stroke="#000000" stroke-miterlimit="10" d="M615.633,436.51c0,55.844,170-259.594,309.497-255.114
		c109.659,3.409,117.127,361.4,175.081,287.581c20.965-26.704,46.457-139.898,46.457-139.898"/>
	<path fill="none" stroke="#000000" stroke-miterlimit="10" d="M615.064,445.844c0,55.844,173.493-275.171,312.987-270.129
		c107.792,3.896,115.585,381.818,172.728,301.298c19.664-27.709,43.753-144.896,43.753-144.896"/>
</g>
<g>
	<path fill="none" stroke="#000000" stroke-miterlimit="10" d="M626.61,458.428c0-55.844-117.614,25.921-257.144,29.87
		c-137.662,3.896-176.422-82.646-210.389-81.817c-53.246,1.299-87.013,64.935-87.013,64.935"/>
	<path fill="none" stroke="#000000" stroke-miterlimit="10" d="M627.179,449.094c0-55.845-121.106,41.499-260.634,44.886
		c-135.795,3.409-172.364-99.478-208.036-95.535c-50.922,5.628-84.309,69.933-84.309,69.933"/>
	<path fill="none" stroke="#000000" stroke-miterlimit="10" d="M627.747,439.759c0-55.844-124.6,57.077-264.124,59.902
		c-133.928,2.922-167.956-116.474-205.682-109.253c-48.385,9.262-81.605,74.931-81.605,74.931"/>
	<path fill="none" stroke="#000000" stroke-miterlimit="10" d="M628.314,430.425c0-55.844-128.091,72.655-267.613,74.919
		c-132.062,2.434-163.305-133.679-203.328-122.971c-45.754,12.241-78.901,79.928-78.901,79.928"/>
	<path fill="none" stroke="#000000" stroke-miterlimit="10" d="M628.883,421.09c0-55.844-131.584,88.234-271.104,89.936
		c-130.194,1.947-158.51-151.124-200.974-136.688c-43.118,14.658-76.197,84.926-76.197,84.926"/>
	<path fill="none" stroke="#000000" stroke-miterlimit="10" d="M629.451,411.756c0-55.844-135.076,103.812-274.595,104.951
		c-128.327,1.461-153.667-168.832-198.62-150.406c-40.533,16.614-73.494,89.923-73.494,89.923"/>
	<path fill="none" stroke="#000000" stroke-miterlimit="10" d="M630.02,402.422c0-55.845-138.568,119.39-278.085,119.967
		c-126.46,0.974-153.608-194.835-196.266-164.123c-40.653,11.203-70.79,94.92-70.79,94.92"/>
	<path fill="none" stroke="#000000" stroke-miterlimit="10" d="M630.588,393.087c0-55.844-142.062,134.968-281.575,134.983
		c-124.594,0.486-149.806-213.533-193.912-177.84c-38.554,12.854-68.087,99.918-68.087,99.918"/>
	<path fill="none" stroke="#000000" stroke-miterlimit="10" d="M631.156,383.753c0-55.844-145.554,150.546-285.065,149.999
		c-122.727,0-146.004-232.231-191.559-191.558c-36.455,14.504-65.383,104.915-65.383,104.915"/>
	<path fill="none" stroke="#000000" stroke-miterlimit="10" d="M631.724,374.418c0-55.844-149.045,166.125-288.555,165.016
		c-120.86-0.487-135.316-242.555-189.205-205.276c-31.222,21.599-62.679,109.914-62.679,109.914"/>
	<path fill="none" stroke="#000000" stroke-miterlimit="10" d="M632.292,365.084c0-55.844-152.538,181.702-292.045,180.032
		c-118.993-0.975-131.311-261.734-186.851-218.993c-29.2,22.471-59.976,114.91-59.976,114.91"/>
	<path fill="none" stroke="#000000" stroke-miterlimit="10" d="M632.86,355.75c0-55.844-156.03,197.281-295.536,195.048
		c-117.126-1.462-127.648-281.202-184.497-232.71c-27.305,23.291-57.271,119.909-57.271,119.909"/>
	<path fill="none" stroke="#000000" stroke-miterlimit="10" d="M633.429,346.415c0-55.844-159.522,212.858-299.026,210.064
		C219.143,554.531,210.03,255.542,152.26,310.052c-25.538,24.097-54.568,124.905-54.568,124.905"/>
	<path fill="none" stroke="#000000" stroke-miterlimit="10" d="M633.997,337.081c0-55.844-163.016,228.437-302.517,225.081
		c-113.393-2.435-121.518-320.91-179.789-260.146c-23.895,24.917-51.864,129.903-51.864,129.903"/>
	<path fill="none" stroke="#000000" stroke-miterlimit="10" d="M634.564,327.747c0-55.844-166.507,244.015-306.006,240.097
		c-111.526-2.923-119.102-341.081-177.436-273.864c-22.373,25.78-49.16,134.901-49.16,134.901"/>
	<path fill="none" stroke="#000000" stroke-miterlimit="10" d="M635.133,318.412c0-55.844-170,259.593-309.497,255.113
		c-109.659-3.41-117.128-361.4-175.081-287.581c-20.965,26.705-46.457,139.898-46.457,139.898"/>
	<path fill="none" stroke="#000000" stroke-miterlimit="10" d="M635.701,309.078c0-55.844-173.492,275.171-312.987,270.129
		c-107.792-3.896-115.585-381.818-172.728-301.298c-19.664,27.709-43.753,144.896-43.753,144.896"/>
</g>
<g>
	<path fill="none" stroke="#000000" stroke-miterlimit="10" d="M659.61,313.428c0-55.844-117.614,25.921-257.143,29.87
		c-137.662,3.896-176.423-82.646-210.39-81.818c-53.246,1.299-87.013,64.935-87.013,64.935"/>
	<path fill="none" stroke="#000000" stroke-miterlimit="10" d="M673.74,305.163c-3.24-52.015-134.668,40.43-274.195,43.816
		c-135.795,3.409-172.365-99.478-208.036-95.535c-50.922,5.628-84.309,69.933-84.309,69.933"/>
	<path fill="none" stroke="#000000" stroke-miterlimit="10" d="M687.87,296.898c-6.48-48.185-151.723,54.938-291.247,57.763
		c-133.928,2.922-167.956-116.474-205.682-109.253c-48.385,9.261-81.605,74.93-81.605,74.93"/>
	<path fill="none" stroke="#000000" stroke-miterlimit="10" d="M702,288.634c-9.721-44.356-168.776,69.446-308.299,71.709
		c-132.062,2.435-163.305-133.678-203.328-122.97c-45.754,12.241-78.901,79.927-78.901,79.927"/>
	<path fill="none" stroke="#000000" stroke-miterlimit="10" d="M716.13,280.37c-12.961-40.526-185.831,83.955-325.351,85.656
		c-130.195,1.948-158.511-151.124-200.975-136.688c-43.118,14.658-76.197,84.925-76.197,84.925"/>
	<path fill="none" stroke="#000000" stroke-miterlimit="10" d="M730.26,272.105c-16.201-36.696-202.885,98.463-342.403,99.602
		c-128.328,1.461-153.667-168.832-198.62-150.406c-40.533,16.614-73.494,89.923-73.494,89.923"/>
	<path fill="none" stroke="#000000" stroke-miterlimit="10" d="M744.39,263.84c-19.441-32.867-219.938,112.971-359.455,113.548
		c-126.461,0.974-153.609-194.835-196.267-164.123c-40.653,11.203-70.79,94.92-70.79,94.92"/>
	<path fill="none" stroke="#000000" stroke-miterlimit="10" d="M758.52,255.576c-22.682-29.037-236.993,127.479-376.507,127.495
		c-124.594,0.487-149.806-213.534-193.912-177.841c-38.554,12.854-68.087,99.918-68.087,99.918"/>
	<path fill="none" stroke="#000000" stroke-miterlimit="10" d="M772.649,247.312c-25.922-25.208-254.047,141.987-393.559,141.44
		c-122.727,0-146.004-232.231-191.559-191.558c-36.455,14.504-65.383,104.915-65.383,104.915"/>
	<path fill="none" stroke="#000000" stroke-miterlimit="10" d="M786.779,239.047c-29.162-21.378-271.102,156.496-410.61,155.388
		c-120.86-0.487-135.316-242.555-189.205-205.276c-31.222,21.599-62.679,109.913-62.679,109.913"/>
	<path fill="none" stroke="#000000" stroke-miterlimit="10" d="M800.909,230.782c-32.402-17.549-288.155,171.004-427.663,169.334
		c-118.993-0.975-131.311-261.734-186.851-218.993c-29.2,22.471-59.976,114.91-59.976,114.91"/>
	<path fill="none" stroke="#000000" stroke-miterlimit="10" d="M815.039,222.518c-35.643-13.719-305.209,185.513-444.714,183.28
		c-117.126-1.461-127.648-281.202-184.497-232.71c-27.305,23.291-57.271,119.908-57.271,119.908"/>
	<path fill="none" stroke="#000000" stroke-miterlimit="10" d="M829.169,214.253c-38.883-9.89-322.264,200.021-461.767,197.227
		C252.143,409.531,243.03,110.542,185.26,165.052c-25.538,24.097-54.568,124.905-54.568,124.905"/>
	<path fill="none" stroke="#000000" stroke-miterlimit="10" d="M843.299,205.988c-42.123-6.06-339.318,214.529-478.818,211.173
		c-113.393-2.435-121.518-320.91-179.789-260.146c-23.895,24.917-51.864,129.903-51.864,129.903"/>
	<path fill="none" stroke="#000000" stroke-miterlimit="10" d="M857.429,197.724c-45.363-2.23-356.372,229.038-495.87,225.12
		C250.033,419.921,242.457,81.763,184.123,148.98c-22.373,25.78-49.16,134.9-49.16,134.9"/>
	<path fill="none" stroke="#000000" stroke-miterlimit="10" d="M871.559,189.459c-48.604,1.599-373.426,243.545-512.922,239.066
		c-109.659-3.409-117.128-361.4-175.081-287.581c-20.965,26.705-46.457,139.898-46.457,139.898"/>
	<path fill="none" stroke="#000000" stroke-miterlimit="10" d="M885.688,181.195c-51.844,5.429-390.48,258.054-529.974,253.012
		c-107.792-3.896-115.585-381.818-172.728-301.298c-19.664,27.709-43.753,144.896-43.753,144.896"/>
</g>
<g>
	<path fill="none" stroke="#000000" stroke-miterlimit="10" d="M364.909,482.493c49.079,26.643,132.86-30.921,272.39-34.87
		c137.662-3.896,160.805,73.325,210.39,81.818c115.371,19.762,201.064-113.688,201.064-113.688"/>
	<path fill="none" stroke="#000000" stroke-miterlimit="10" d="M366.857,487.201c48.238,23.548,133.836-41.873,273.363-45.26
		c135.795-3.408,155.427,87.116,208.036,95.536c112.629,18.025,199.359-105.653,199.359-105.653"/>
	<path fill="none" stroke="#000000" stroke-miterlimit="10" d="M368.805,491.909c47.398,20.453,134.813-52.824,274.337-55.649
		c133.929-2.922,150.038,100.93,205.683,109.253c109.856,16.432,197.655-97.617,197.655-97.617"/>
	<path fill="none" stroke="#000000" stroke-miterlimit="10" d="M370.753,496.616c46.558,17.359,135.789-63.775,275.312-66.038
		c132.062-2.436,144.64,114.77,203.327,122.971c107.058,14.96,195.951-89.581,195.951-89.581"/>
	<path fill="none" stroke="#000000" stroke-miterlimit="10" d="M372.701,501.324c45.718,14.265,136.766-74.727,276.286-76.429
		c130.194-1.947,139.233,128.638,200.974,136.688c104.239,13.592,194.246-81.545,194.246-81.545"/>
	<path fill="none" stroke="#000000" stroke-miterlimit="10" d="M374.649,506.032c44.878,11.17,137.741-85.679,277.26-86.818
		c128.327-1.46,133.82,142.537,198.62,150.406c101.404,12.314,192.542-73.51,192.542-73.51"/>
	<path fill="none" stroke="#000000" stroke-miterlimit="10" d="M376.598,510.74c44.038,8.075,138.718-96.631,278.233-97.208
		c126.461-0.974,128.401,156.469,196.267,164.123c98.558,11.116,190.837-65.474,190.837-65.474"/>
	<path fill="none" stroke="#000000" stroke-miterlimit="10" d="M378.545,515.448c43.198,4.98,139.694-107.582,279.208-107.598
		c124.595-0.487,122.978,170.438,193.913,177.841c95.7,9.988,189.133-57.438,189.133-57.438"/>
	<path fill="none" stroke="#000000" stroke-miterlimit="10" d="M380.494,520.156c42.357,1.886,140.67-118.534,280.182-117.987
		c122.727,0,117.547,184.446,191.559,191.558c92.836,8.92,187.428-49.402,187.428-49.402"/>
	<path fill="none" stroke="#000000" stroke-miterlimit="10" d="M382.442,524.863c41.517-1.208,141.646-129.484,281.156-128.376
		c120.859,0.487,112.113,198.502,189.204,205.275c89.969,7.905,185.724-41.366,185.724-41.366"/>
	<path fill="none" stroke="#000000" stroke-miterlimit="10" d="M384.39,529.571c40.677-4.303,142.622-140.437,282.13-138.767
		c118.993,0.975,106.677,212.607,186.851,218.994c87.097,6.938,184.02-33.331,184.02-33.331"/>
	<path fill="none" stroke="#000000" stroke-miterlimit="10" d="M386.338,534.279c39.837-7.397,143.599-151.388,283.104-149.156
		c117.127,1.461,101.237,226.766,184.497,232.711c84.225,6.015,182.314-25.295,182.314-25.295"/>
	<path fill="none" stroke="#000000" stroke-miterlimit="10" d="M388.286,538.987c38.997-10.492,144.574-162.34,284.077-159.546
		c115.26,1.948,95.795,240.985,182.144,246.429c81.352,5.128,180.61-17.26,180.61-17.26"/>
	<path fill="none" stroke="#000000" stroke-miterlimit="10" d="M390.234,543.695c38.157-13.587,145.551-173.292,285.051-169.936
		c113.393,2.435,90.353,255.272,179.79,260.146c78.481,4.276,178.905-9.224,178.905-9.224"/>
	<path fill="none" stroke="#000000" stroke-miterlimit="10" d="M392.182,548.402c37.316-16.681,146.527-184.243,286.026-180.324
		C789.733,371,763.117,637.712,855.643,641.941c75.615,3.456,177.201-1.188,177.201-1.188"/>
	<path fill="none" stroke="#000000" stroke-miterlimit="10" d="M394.13,553.11c36.477-19.775,147.504-195.194,287-190.714
		c109.659,3.409,79.468,284.08,175.081,287.581c72.753,2.664,175.497,6.849,175.497,6.849"/>
	<path fill="none" stroke="#000000" stroke-miterlimit="10" d="M396.078,557.818c35.636-22.87,148.479-206.146,287.974-201.104
		c107.792,3.896,74.028,298.621,172.728,301.298c69.896,1.896,173.792,14.884,173.792,14.884"/>
</g>
</svg>
