<?xml version="1.0" encoding="utf-8"?>
<!-- Generator: Adobe Illustrator 15.0.0, SVG Export Plug-In . SVG Version: 6.00 Build 0)  -->
<!DOCTYPE svg PUBLIC "-//W3C//DTD SVG 1.1//EN" "http://www.w3.org/Graphics/SVG/1.1/DTD/svg11.dtd">
<svg version="1.1" id="Warstwa_1" xmlns="http://www.w3.org/2000/svg" xmlns:xlink="http://www.w3.org/1999/xlink" x="0px" y="0px"
	 width="1374px" height="766px" viewBox="0 0 1374 766" enable-background="new 0 0 1374 766" xml:space="preserve">
<g>
	<defs>
		<rect id="SVGID_1_" x="3" y="-8" width="1376" height="768"/>
	</defs>
	<clipPath id="SVGID_2_">
		<use xlink:href="#SVGID_1_"  overflow="visible"/>
	</clipPath>
	<g transform="matrix(1 0 0 1 -2.137070e-007 5.813241e-006)" clip-path="url(#SVGID_2_)">
		
			<image overflow="visible" width="3336" height="2224" xlink:href="4DF77BB8.jpg"  transform="matrix(0.4117 0 0 0.409 5.5156 -155.5137)">
		</image>
	</g>
</g>
<polyline fill="none" stroke="#FFFFFF" stroke-miterlimit="10" points="1371,234.941 1106.176,417.147 1102.997,487.865 
	973.187,584.692 971.123,651.904 873.921,706.5 734,706.5 715.75,724.75 653.363,724.863 635,706.5 499.04,706.5 401.816,651.904 
	399.736,584.692 267.884,487.865 264.628,417.147 5,234.691 "/>
<polygon fill="#09041E" points="1374.188,254.439 1125.378,420.6 1121.162,494.921 1004.413,585.857 1019,608.539 1019,689.204 
	983.172,669.338 882.193,726 734,726 716,744 652.767,744 635,726 490.767,726 389.308,669.338 353,689.204 353,608.539 
	368.128,585.81 251.793,494.825 247.697,420.408 5,256.938 5,764 1375,764 "/>
<polyline fill="#09041E" points="327.498,-8 376.827,43.634 390.754,83.362 422.586,107.204 438.502,123.105 492.219,145.705 
	565.832,226 633.474,226 652.873,207 717.034,207 738.919,226 806.562,226 880.175,143.723 933.891,121.244 949.807,105.304 
	981.64,81.463 995.565,41.783 1042.68,-8 "/>
<polyline fill="none" stroke="#C38FFF" stroke-miterlimit="10" points="4.01,257.013 246.822,420.408 250.918,494.825 
	367.378,585.81 352.5,608.539 352.5,689.204 388.558,669.088 489.767,725.5 634,725.5 651.767,743.5 715,743.5 733,725.5 
	881.193,725.5 982.422,669.088 1018.5,689.204 1018.5,608.539 1003.64,585.795 1120.115,494.796 1124.284,420.35 1373,253.939 "/>
<polygon fill="#FFFFFF" points="367.75,86 19,86 19,13.5 314.378,13.242 358.352,58.572 "/>
<line fill="none" stroke="#FFFFFF" stroke-miterlimit="10" x1="440.5" y1="67" x2="440.5" y2="75"/>
<line fill="none" stroke="#FFFFFF" stroke-miterlimit="10" x1="450.5" y1="67" x2="450.5" y2="75"/>
<text transform="matrix(1 0 0 1 556.6084 74.9219)" fill="#FFFFFF" font-family="'Prime-Regular'" font-size="11.404">S</text>
<text transform="matrix(1 0 0 1 677.9419 74.9209)" fill="#FFFFFF" font-family="'Prime-Regular'" font-size="11.404">W</text>
<text transform="matrix(1 0 0 1 797.9414 74.9209)" fill="#FFFFFF" font-family="'Prime-Regular'" font-size="11.404">N</text>
<text transform="matrix(1 0 0 1 919.6074 74.9209)" fill="#FFFFFF" font-family="'Prime-Regular'" font-size="11.404">E</text>
<line fill="none" stroke="#FFFFFF" stroke-miterlimit="10" x1="460.5" y1="67" x2="460.5" y2="75"/>
<line fill="none" stroke="#FFFFFF" stroke-miterlimit="10" x1="470.5" y1="67" x2="470.5" y2="75"/>
<line fill="none" stroke="#FFFFFF" stroke-miterlimit="10" x1="480.5" y1="67" x2="480.5" y2="75"/>
<line fill="none" stroke="#FFFFFF" stroke-miterlimit="10" x1="490.5" y1="67" x2="490.5" y2="75"/>
<line fill="none" stroke="#FFFFFF" stroke-miterlimit="10" x1="500.5" y1="67" x2="500.5" y2="75"/>
<line fill="none" stroke="#FFFFFF" stroke-miterlimit="10" x1="510.5" y1="67" x2="510.5" y2="75"/>
<line fill="none" stroke="#FFFFFF" stroke-miterlimit="10" x1="520.5" y1="67" x2="520.5" y2="75"/>
<line fill="none" stroke="#FFFFFF" stroke-miterlimit="10" x1="530.5" y1="67" x2="530.5" y2="75"/>
<line fill="none" stroke="#FFFFFF" stroke-miterlimit="10" x1="540.5" y1="67" x2="540.5" y2="75"/>
<line fill="none" stroke="#FFFFFF" stroke-miterlimit="10" x1="550.5" y1="67" x2="550.5" y2="75"/>
<line fill="none" stroke="#FFFFFF" stroke-miterlimit="10" x1="570.5" y1="67" x2="570.5" y2="75"/>
<line fill="none" stroke="#FFFFFF" stroke-miterlimit="10" x1="580.5" y1="67" x2="580.5" y2="75"/>
<line fill="none" stroke="#FFFFFF" stroke-miterlimit="10" x1="590.5" y1="67" x2="590.5" y2="75"/>
<line fill="none" stroke="#FFFFFF" stroke-miterlimit="10" x1="600.5" y1="67" x2="600.5" y2="75"/>
<line fill="none" stroke="#FFFFFF" stroke-miterlimit="10" x1="610.5" y1="67" x2="610.5" y2="75"/>
<line fill="none" stroke="#FFFFFF" stroke-miterlimit="10" x1="620.5" y1="67" x2="620.5" y2="75"/>
<line fill="none" stroke="#FFFFFF" stroke-miterlimit="10" x1="630.5" y1="67" x2="630.5" y2="75"/>
<line fill="none" stroke="#FFFFFF" stroke-miterlimit="10" x1="640.5" y1="67" x2="640.5" y2="75"/>
<line fill="none" stroke="#FFFFFF" stroke-miterlimit="10" x1="650.5" y1="67" x2="650.5" y2="75"/>
<line fill="none" stroke="#FFFFFF" stroke-miterlimit="10" x1="660.5" y1="67" x2="660.5" y2="75"/>
<line fill="none" stroke="#FFFFFF" stroke-miterlimit="10" x1="670.5" y1="67" x2="670.5" y2="75"/>
<line fill="none" stroke="#FFFFFF" stroke-miterlimit="10" x1="697.5" y1="67" x2="697.5" y2="75"/>
<line fill="none" stroke="#FFFFFF" stroke-miterlimit="10" x1="707.5" y1="67" x2="707.5" y2="75"/>
<line fill="none" stroke="#FFFFFF" stroke-miterlimit="10" x1="717.5" y1="67" x2="717.5" y2="75"/>
<line fill="none" stroke="#FFFFFF" stroke-miterlimit="10" x1="727.5" y1="67" x2="727.5" y2="75"/>
<line fill="none" stroke="#FFFFFF" stroke-miterlimit="10" x1="737.5" y1="67" x2="737.5" y2="75"/>
<line fill="none" stroke="#FFFFFF" stroke-miterlimit="10" x1="747.5" y1="67" x2="747.5" y2="75"/>
<line fill="none" stroke="#FFFFFF" stroke-miterlimit="10" x1="757.5" y1="67" x2="757.5" y2="75"/>
<line fill="none" stroke="#FFFFFF" stroke-miterlimit="10" x1="767.5" y1="67" x2="767.5" y2="75"/>
<line fill="none" stroke="#FFFFFF" stroke-miterlimit="10" x1="777.5" y1="67" x2="777.5" y2="75"/>
<line fill="none" stroke="#FFFFFF" stroke-miterlimit="10" x1="787.5" y1="67" x2="787.5" y2="75"/>
<line fill="none" stroke="#FFFFFF" stroke-miterlimit="10" x1="814.5" y1="67" x2="814.5" y2="75"/>
<line fill="none" stroke="#FFFFFF" stroke-miterlimit="10" x1="824.5" y1="67" x2="824.5" y2="75"/>
<line fill="none" stroke="#FFFFFF" stroke-miterlimit="10" x1="834.5" y1="67" x2="834.5" y2="75"/>
<line fill="none" stroke="#FFFFFF" stroke-miterlimit="10" x1="844.5" y1="67" x2="844.5" y2="75"/>
<line fill="none" stroke="#FFFFFF" stroke-miterlimit="10" x1="854.5" y1="67" x2="854.5" y2="75"/>
<line fill="none" stroke="#FFFFFF" stroke-miterlimit="10" x1="864.5" y1="67" x2="864.5" y2="75"/>
<line fill="none" stroke="#FFFFFF" stroke-miterlimit="10" x1="874.5" y1="67" x2="874.5" y2="75"/>
<line fill="none" stroke="#FFFFFF" stroke-miterlimit="10" x1="884.5" y1="67" x2="884.5" y2="75"/>
<line fill="none" stroke="#FFFFFF" stroke-miterlimit="10" x1="894.5" y1="67" x2="894.5" y2="75"/>
<line fill="none" stroke="#FFFFFF" stroke-miterlimit="10" x1="904.5" y1="67" x2="904.5" y2="75"/>
<line fill="none" stroke="#FFFFFF" stroke-miterlimit="10" x1="914.5" y1="67" x2="914.5" y2="75"/>
<line fill="none" stroke="#FFFFFF" stroke-miterlimit="10" x1="935.5" y1="67" x2="935.5" y2="75"/>
<line fill="none" stroke="#FFFFFF" stroke-miterlimit="10" x1="945.5" y1="67" x2="945.5" y2="75"/>
<g>
	<text transform="matrix(1 0 0 1 562.1738 661.2764)" fill="#FFFFFF" font-family="'Orbitron-Regular'" font-size="12">About</text>
	<text transform="matrix(1 0 0 1 635.5991 661.4385)" fill="#FFFFFF" font-family="'Orbitron-Regular'" font-size="12">Work</text>
	<text transform="matrix(1 0 0 1 706.375 661.4229)" fill="#FFFFFF" font-family="'Orbitron-Regular'" font-size="12">Contact</text>
	<text transform="matrix(1 0 0 1 793.2871 661.4727)" fill="#FFFFFF" font-family="'Orbitron-Regular'" font-size="12">Blog</text>
</g>
<text transform="matrix(1 0 0 1 1081.6094 21.7783)" fill="#FFFFFF" font-family="'Prime-Regular'" font-size="12">signal</text>
<text transform="matrix(1 0 0 1 1163.7568 21.9424)" fill="#FFFFFF" font-family="'Prime-Regular'" font-size="12">frequency  1  2  3  4</text>
<line fill="none" stroke="#FFFFFF" stroke-miterlimit="10" x1="1118.878" y1="22.177" x2="1127.947" y2="13.107"/>
<line fill="none" stroke="#FFFFFF" stroke-miterlimit="10" x1="1122.878" y1="22.177" x2="1131.947" y2="13.107"/>
<line fill="none" stroke="#FFFFFF" stroke-miterlimit="10" x1="1126.878" y1="22.177" x2="1135.947" y2="13.107"/>
<line fill="none" stroke="#FFFFFF" stroke-miterlimit="10" x1="1130.878" y1="22.177" x2="1139.947" y2="13.107"/>
<line fill="none" stroke="#FFFFFF" stroke-miterlimit="10" x1="1134.878" y1="22.177" x2="1143.947" y2="13.107"/>
<line fill="none" stroke="#FFFFFF" stroke-miterlimit="10" x1="1138.878" y1="22.177" x2="1147.947" y2="13.107"/>
<line fill="none" stroke="#FFFFFF" stroke-miterlimit="10" x1="1142.878" y1="22.177" x2="1151.947" y2="13.107"/>
<line fill="none" stroke="#FFFFFF" stroke-miterlimit="10" x1="1146.878" y1="22.177" x2="1155.947" y2="13.107"/>
<text transform="matrix(1 0 0 1 37.5454 109.4097)" fill="#FFFFFF" font-family="'Prime-Regular'" font-size="12">MISSION DAY </text>
<text transform="matrix(1 0 0 1 37.9131 127.1616)"><tspan x="0" y="0" fill="#FFFFFF" font-family="'Prime-Regular'" font-size="12">SOL </tspan><tspan x="27.312" y="0" fill="#FFFFFF" font-family="'Orbitron-Regular'" font-size="12">0001</tspan></text>
<text transform="matrix(1 0 0 1 36.438 154.188)" fill="#FFFFFF" font-family="'Prime-Regular'" font-size="12">ENVIORMENT</text>
<text transform="matrix(1 0 0 1 36.2593 182.6138)" fill="#FFFFFF" font-family="'Prime-Regular'" font-size="12">PRESSURE</text>
<text transform="matrix(1 0 0 1 36.9917 198.6299)"><tspan x="0" y="0" fill="#FFFFFF" font-family="'Orbitron-Regular'" font-size="12">12.45 </tspan><tspan x="39.203" y="0" fill="#FFFFFF" font-family="'Prime-Regular'" font-size="12">PSI</tspan></text>
<text transform="matrix(1 0 0 1 70.1045 229.644)" fill="#FFFFFF" font-family="'Prime-Regular'" font-size="12">OXYGEN</text>
<text transform="matrix(1 0 0 1 70.8369 246.6602)"><tspan x="0" y="0" fill="#FFFFFF" font-family="'Orbitron-Regular'" font-size="12">20.82 </tspan><tspan x="45.768" y="0" fill="#FFFFFF" font-family="'Prime-Regular'" font-size="12">%</tspan></text>
<text transform="matrix(1 0 0 1 113.8447 277.5181)" fill="#FFFFFF" font-family="'Prime-Regular'" font-size="12">TEMPERATURE</text>
<text transform="matrix(1 0 0 1 114.5771 294.5342)"><tspan x="0" y="0" fill="#FFFFFF" font-family="'Orbitron-Regular'" font-size="12">16.35 </tspan><tspan x="40.235" y="0" fill="#FFFFFF" font-family="'Prime-Regular'" font-size="12">C</tspan></text>
<path fill="#FFFFFF" d="M31,212.5c0,0.828-0.671,1.5-1.5,1.5l0,0c-0.829,0-1.5-0.672-1.5-1.5v-8c0-0.828,0.671-1.5,1.5-1.5l0,0
	c0.829,0,1.5,0.672,1.5,1.5V212.5z"/>
<path fill="#FFFFFF" d="M35,212.5c0,0.828-0.671,1.5-1.5,1.5l0,0c-0.829,0-1.5-0.672-1.5-1.5v-8c0-0.828,0.671-1.5,1.5-1.5l0,0
	c0.829,0,1.5,0.672,1.5,1.5V212.5z"/>
<path fill="#FFFFFF" d="M39,212.5c0,0.828-0.671,1.5-1.5,1.5l0,0c-0.829,0-1.5-0.672-1.5-1.5v-8c0-0.828,0.671-1.5,1.5-1.5l0,0
	c0.829,0,1.5,0.672,1.5,1.5V212.5z"/>
<path fill="#FFFFFF" d="M43,212.5c0,0.828-0.671,1.5-1.5,1.5l0,0c-0.829,0-1.5-0.672-1.5-1.5v-8c0-0.828,0.671-1.5,1.5-1.5l0,0
	c0.829,0,1.5,0.672,1.5,1.5V212.5z"/>
<path fill="#FFFFFF" d="M47,212.5c0,0.828-0.671,1.5-1.5,1.5l0,0c-0.829,0-1.5-0.672-1.5-1.5v-8c0-0.828,0.671-1.5,1.5-1.5l0,0
	c0.829,0,1.5,0.672,1.5,1.5V212.5z"/>
<path fill="#FFFFFF" d="M51,212.5c0,0.828-0.671,1.5-1.5,1.5l0,0c-0.829,0-1.5-0.672-1.5-1.5v-8c0-0.828,0.671-1.5,1.5-1.5l0,0
	c0.829,0,1.5,0.672,1.5,1.5V212.5z"/>
<path fill="#FFFFFF" d="M55,212.5c0,0.828-0.671,1.5-1.5,1.5l0,0c-0.829,0-1.5-0.672-1.5-1.5v-8c0-0.828,0.671-1.5,1.5-1.5l0,0
	c0.829,0,1.5,0.672,1.5,1.5V212.5z"/>
<path fill="#FFFFFF" d="M59,212.5c0,0.828-0.671,1.5-1.5,1.5l0,0c-0.829,0-1.5-0.672-1.5-1.5v-8c0-0.828,0.671-1.5,1.5-1.5l0,0
	c0.829,0,1.5,0.672,1.5,1.5V212.5z"/>
<path fill="#FFFFFF" d="M63,212.5c0,0.828-0.671,1.5-1.5,1.5l0,0c-0.829,0-1.5-0.672-1.5-1.5v-8c0-0.828,0.671-1.5,1.5-1.5l0,0
	c0.829,0,1.5,0.672,1.5,1.5V212.5z"/>
<path fill="#FFFFFF" d="M67,212.5c0,0.828-0.671,1.5-1.5,1.5l0,0c-0.829,0-1.5-0.672-1.5-1.5v-8c0-0.828,0.671-1.5,1.5-1.5l0,0
	c0.829,0,1.5,0.672,1.5,1.5V212.5z"/>
<path fill="#FFFFFF" d="M71,212.5c0,0.828-0.671,1.5-1.5,1.5l0,0c-0.829,0-1.5-0.672-1.5-1.5v-8c0-0.828,0.671-1.5,1.5-1.5l0,0
	c0.829,0,1.5,0.672,1.5,1.5V212.5z"/>
<path fill="#FFFFFF" d="M75,212.5c0,0.828-0.671,1.5-1.5,1.5l0,0c-0.829,0-1.5-0.672-1.5-1.5v-8c0-0.828,0.671-1.5,1.5-1.5l0,0
	c0.829,0,1.5,0.672,1.5,1.5V212.5z"/>
<path fill="none" stroke="#FFFFFF" stroke-miterlimit="10" d="M62.076,218.277c0,0,58.625-0.277,62.991-0.277
	c3.492,0,3.439,4.164,3.433,5.008c-0.01,1.379,0,8.018,0,8.018V239c0,0-0.01,3.639,0,5.018c0.006,0.844,0.059,5.008-3.433,5.008
	c-4.366,0-62.991-0.277-62.991-0.277"/>
<polygon fill="#FFFFFF" points="61,225.713 66.824,234.588 61,243.463 "/>
<path fill="none" stroke="#FFFFFF" stroke-miterlimit="10" d="M29.076,171.277c0,0,63.625-0.277,67.991-0.277
	c3.492,0,3.439,4.164,3.433,5.008c-0.01,1.379,0,7.018,0,7.018V191c0,0-0.01,3.639,0,5.018c0.006,0.844,0.059,5.008-3.433,5.008
	c-4.366,0-67.991-0.277-67.991-0.277"/>
<polygon fill="#FFFFFF" points="28,177.713 33.824,186.588 28,195.463 "/>
<path fill="none" stroke="#FFFFFF" stroke-miterlimit="10" d="M110.076,266.277c0,0,84.625-0.277,88.991-0.277
	c3.492,0,3.439,4.164,3.433,5.008c-0.01,1.379,0,8.018,0,8.018V287c0,0-0.01,3.639,0,5.018c0.006,0.844,0.059,5.008-3.433,5.008
	c-4.366,0-88.991-0.277-88.991-0.277"/>
<polygon fill="#FFFFFF" points="109,273.713 114.824,282.588 109,291.463 "/>
<rect x="61.5" y="251.5" fill="none" stroke="#FFFFFF" stroke-miterlimit="10" width="69" height="11"/>
<rect x="61" y="252" fill="#FFFFFF" width="17" height="11"/>
<line fill="none" stroke="#FFFFFF" stroke-miterlimit="10" x1="132.5" y1="310" x2="132.5" y2="300"/>
<line fill="none" stroke="#FFFFFF" stroke-miterlimit="10" x1="130.5" y1="310" x2="130.5" y2="300"/>
<line fill="none" stroke="#FFFFFF" stroke-miterlimit="10" x1="134.5" y1="310" x2="134.5" y2="300"/>
<line fill="none" stroke="#FFFFFF" stroke-miterlimit="10" x1="138.5" y1="310" x2="138.5" y2="300"/>
<line fill="none" stroke="#FFFFFF" stroke-miterlimit="10" x1="136.5" y1="310" x2="136.5" y2="300"/>
<line fill="none" stroke="#FFFFFF" stroke-miterlimit="10" x1="140.5" y1="310" x2="140.5" y2="300"/>
<line fill="none" stroke="#FFFFFF" stroke-miterlimit="10" x1="144.5" y1="310" x2="144.5" y2="300"/>
<line fill="none" stroke="#FFFFFF" stroke-miterlimit="10" x1="142.5" y1="310" x2="142.5" y2="300"/>
<line fill="none" stroke="#FFFFFF" stroke-miterlimit="10" x1="146.5" y1="310" x2="146.5" y2="300"/>
<line fill="none" stroke="#FFFFFF" stroke-miterlimit="10" x1="150.5" y1="310" x2="150.5" y2="300"/>
<line fill="none" stroke="#FFFFFF" stroke-miterlimit="10" x1="148.5" y1="310" x2="148.5" y2="300"/>
<line fill="none" stroke="#FFFFFF" stroke-miterlimit="10" x1="152.5" y1="310" x2="152.5" y2="300"/>
<line fill="none" stroke="#FFFFFF" stroke-miterlimit="10" x1="154.5" y1="310" x2="154.5" y2="300"/>
<line fill="none" stroke="#FFFFFF" stroke-miterlimit="10" x1="158.5" y1="310" x2="158.5" y2="300"/>
<line fill="none" stroke="#FFFFFF" stroke-miterlimit="10" x1="156.5" y1="310" x2="156.5" y2="300"/>
<line fill="none" stroke="#FFFFFF" stroke-miterlimit="10" x1="160.5" y1="310" x2="160.5" y2="300"/>
<line fill="none" stroke="#FFFFFF" stroke-miterlimit="10" x1="130" y1="312.5" x2="202" y2="312.5"/>
<circle fill="#FFFFFF" cx="201.716" cy="312.436" r="0.909"/>
<circle fill="#FFFFFF" cx="130.716" cy="312.436" r="0.909"/>
<polygon fill="none" stroke="#FFFFFF" stroke-linecap="round" stroke-linejoin="round" stroke-miterlimit="10" points="137,315.5 
	197,315.5 193.799,318.5 141,318.5 "/>
<line fill="none" stroke="#FFFFFF" stroke-miterlimit="10" x1="101" y1="167.5" x2="29" y2="167.5"/>
<circle fill="#FFFFFF" cx="29.716" cy="167.591" r="0.909"/>
<circle fill="#FFFFFF" cx="100.716" cy="167.591" r="0.909"/>
<polygon fill="none" stroke="#FFFFFF" stroke-linecap="round" stroke-linejoin="round" stroke-miterlimit="10" points="
	94.432,164.5 34.432,164.5 37.633,161.5 90.432,161.5 "/>
<line fill="none" stroke="#000000" stroke-miterlimit="10" x1="28" y1="186.5" x2="34" y2="186.5"/>
<line fill="none" stroke="#000000" stroke-miterlimit="10" x1="61" y1="234.5" x2="67" y2="234.5"/>
<line fill="none" stroke="#000000" stroke-miterlimit="10" x1="109" y1="282.5" x2="115" y2="282.5"/>
<circle fill="#FFFFFF" cx="29.716" cy="171.591" r="0.909"/>
<circle fill="#FFFFFF" cx="29.716" cy="200.591" r="0.909"/>
<circle fill="#FFFFFF" cx="61.716" cy="218.591" r="0.909"/>
<circle fill="#FFFFFF" cx="61.716" cy="248.591" r="0.909"/>
<circle fill="#FFFFFF" cx="109.716" cy="266.591" r="0.909"/>
<circle fill="#FFFFFF" cx="109.716" cy="296.591" r="0.909"/>
<polygon fill="none" stroke="#FFFFFF" stroke-miterlimit="10" points="491.165,681.19 497.854,674.5 884,674.5 892.355,682.299 
	889.072,684.27 839.725,684.414 837.003,681.5 545,681.5 541.01,684.5 494,684.5 "/>
<line fill="none" stroke="#FFFFFF" stroke-width="2" stroke-miterlimit="10" x1="484" y1="425" x2="561" y2="425"/>
<line fill="none" stroke="#FFFFFF" stroke-width="2" stroke-miterlimit="10" x1="831" y1="424" x2="908" y2="424"/>
<polyline fill="none" stroke="#FFFFFF" stroke-width="2" stroke-miterlimit="10" points="618,331 574.097,331 518.803,423.745 
	572.597,521.801 "/>
<path fill="none" stroke="#E513DB" stroke-miterlimit="10" d="M573,521.5"/>
<line fill="none" stroke="#FFFFFF" stroke-width="2" stroke-miterlimit="10" x1="573" y1="522" x2="618" y2="522"/>
<polyline fill="none" stroke="#FFFFFF" stroke-width="2" stroke-miterlimit="10" points="771,331 814.706,331 870,423.745 
	816.305,521.801 "/>
<line fill="none" stroke="#FFFFFF" stroke-width="2" stroke-miterlimit="10" x1="816" y1="522" x2="771" y2="522"/>
<text transform="matrix(1 0 0 1 1321.3535 151.188)" fill="#FFFFFF" font-family="'Prime-Regular'" font-size="12">SUIT</text>
<text transform="matrix(1 0 0 1 1285.8008 179.6138)" fill="#FFFFFF" font-family="'Prime-Regular'" font-size="12">PRESSURE</text>
<text transform="matrix(1 0 0 1 1287.5332 195.6299)"><tspan x="0" y="0" fill="#FFFFFF" font-family="'Orbitron-Regular'" font-size="12">10.00 </tspan><tspan x="40.548" y="0" fill="#FFFFFF" font-family="'Prime-Regular'" font-size="12">PSI</tspan></text>
<text transform="matrix(1 0 0 1 1262.3555 226.644)" fill="#FFFFFF" font-family="'Prime-Regular'" font-size="12">OXYGEN</text>
<text transform="matrix(1 0 0 1 1261.4551 243.6602)"><tspan x="0" y="0" fill="#FFFFFF" font-family="'Orbitron-Regular'" font-size="12">80.12 </tspan><tspan x="40.5" y="0" fill="#FFFFFF" font-family="'Prime-Regular'" font-size="12">%</tspan></text>
<text transform="matrix(1 0 0 1 1184.2832 274.5181)" fill="#FFFFFF" font-family="'Prime-Regular'" font-size="12">TEMPERATURE</text>
<text transform="matrix(1 0 0 1 1216.0488 291.5342)"><tspan x="0" y="0" fill="#FFFFFF" font-family="'Orbitron-Regular'" font-size="12">20.00 </tspan><tspan x="45.814" y="0" fill="#FFFFFF" font-family="'Prime-Regular'" font-size="12">C</tspan></text>
<path fill="#FFFFFF" d="M1356,201.5c0-0.828-0.672-1.5-1.5-1.5l0,0c-0.828,0-1.5,0.672-1.5,1.5v8c0,0.828,0.672,1.5,1.5,1.5l0,0
	c0.828,0,1.5-0.672,1.5-1.5V201.5z"/>
<path fill="#FFFFFF" d="M1352,201.5c0-0.828-0.672-1.5-1.5-1.5l0,0c-0.828,0-1.5,0.672-1.5,1.5v8c0,0.828,0.672,1.5,1.5,1.5l0,0
	c0.828,0,1.5-0.672,1.5-1.5V201.5z"/>
<path fill="#FFFFFF" d="M1348,201.5c0-0.828-0.672-1.5-1.5-1.5l0,0c-0.828,0-1.5,0.672-1.5,1.5v8c0,0.828,0.672,1.5,1.5,1.5l0,0
	c0.828,0,1.5-0.672,1.5-1.5V201.5z"/>
<path fill="#FFFFFF" d="M1344,201.5c0-0.828-0.672-1.5-1.5-1.5l0,0c-0.828,0-1.5,0.672-1.5,1.5v8c0,0.828,0.672,1.5,1.5,1.5l0,0
	c0.828,0,1.5-0.672,1.5-1.5V201.5z"/>
<path fill="#FFFFFF" d="M1340,201.5c0-0.828-0.672-1.5-1.5-1.5l0,0c-0.828,0-1.5,0.672-1.5,1.5v8c0,0.828,0.672,1.5,1.5,1.5l0,0
	c0.828,0,1.5-0.672,1.5-1.5V201.5z"/>
<path fill="#FFFFFF" d="M1336,201.5c0-0.828-0.672-1.5-1.5-1.5l0,0c-0.828,0-1.5,0.672-1.5,1.5v8c0,0.828,0.672,1.5,1.5,1.5l0,0
	c0.828,0,1.5-0.672,1.5-1.5V201.5z"/>
<path fill="#FFFFFF" d="M1332,201.5c0-0.828-0.672-1.5-1.5-1.5l0,0c-0.828,0-1.5,0.672-1.5,1.5v8c0,0.828,0.672,1.5,1.5,1.5l0,0
	c0.828,0,1.5-0.672,1.5-1.5V201.5z"/>
<path fill="#FFFFFF" d="M1328,201.5c0-0.828-0.672-1.5-1.5-1.5l0,0c-0.828,0-1.5,0.672-1.5,1.5v8c0,0.828,0.672,1.5,1.5,1.5l0,0
	c0.828,0,1.5-0.672,1.5-1.5V201.5z"/>
<path fill="#FFFFFF" d="M1324,201.5c0-0.828-0.672-1.5-1.5-1.5l0,0c-0.828,0-1.5,0.672-1.5,1.5v8c0,0.828,0.672,1.5,1.5,1.5l0,0
	c0.828,0,1.5-0.672,1.5-1.5V201.5z"/>
<path fill="#FFFFFF" d="M1320,201.5c0-0.828-0.672-1.5-1.5-1.5l0,0c-0.828,0-1.5,0.672-1.5,1.5v8c0,0.828,0.672,1.5,1.5,1.5l0,0
	c0.828,0,1.5-0.672,1.5-1.5V201.5z"/>
<path fill="none" stroke="#FFFFFF" stroke-miterlimit="10" d="M1318.549,215.277c0,0-58.625-0.277-62.99-0.277
	c-3.492,0-3.252,4.164-3.246,5.008c0.01,1.379,0.188,8.018,0.188,8.018V236c0,0-0.178,3.639-0.188,5.018
	c-0.006,0.844-0.152,5.008,3.34,5.008c4.365,0,62.943-0.277,62.943-0.277"/>
<polygon fill="#FFFFFF" points="1320,222.713 1314.176,231.588 1320,240.463 "/>
<path fill="none" stroke="#FFFFFF" stroke-miterlimit="10" d="M1354.549,168.277c0,0-63.625-0.277-67.99-0.277
	c-3.492,0-3.252,4.164-3.246,5.008c0.01,1.379,0.188,7.018,0.188,7.018V188c0,0-0.178,3.639-0.188,5.018
	c-0.006,0.844-0.152,5.008,3.34,5.008c4.365,0,67.943-0.277,67.943-0.277"/>
<polygon fill="#FFFFFF" points="1356,174.713 1350.176,183.588 1356,192.463 "/>
<path fill="none" stroke="#FFFFFF" stroke-miterlimit="10" d="M1272.549,263.277c0,0-84.625-0.277-88.99-0.277
	c-3.492,0-3.252,4.164-3.246,5.008c0.01,1.379,0.188,8.018,0.188,8.018V284c0,0-0.178,3.639-0.188,5.018
	c-0.006,0.844-0.152,5.008,3.34,5.008c4.365,0,88.943-0.277,88.943-0.277"/>
<polygon fill="#FFFFFF" points="1274,270.713 1268.176,279.588 1274,288.463 "/>
<rect x="1250.5" y="248.5" fill="none" stroke="#FFFFFF" stroke-miterlimit="10" width="69" height="11"/>
<rect x="1269" y="248" fill="#FFFFFF" width="51" height="11"/>
<line fill="none" stroke="#FFFFFF" stroke-miterlimit="10" x1="1250.5" y1="307" x2="1250.5" y2="297"/>
<line fill="none" stroke="#FFFFFF" stroke-miterlimit="10" x1="1252.5" y1="307" x2="1252.5" y2="297"/>
<line fill="none" stroke="#FFFFFF" stroke-miterlimit="10" x1="1248.5" y1="307" x2="1248.5" y2="297"/>
<line fill="none" stroke="#FFFFFF" stroke-miterlimit="10" x1="1244.5" y1="307" x2="1244.5" y2="297"/>
<line fill="none" stroke="#FFFFFF" stroke-miterlimit="10" x1="1246.5" y1="307" x2="1246.5" y2="297"/>
<line fill="none" stroke="#FFFFFF" stroke-miterlimit="10" x1="1242.5" y1="307" x2="1242.5" y2="297"/>
<line fill="none" stroke="#FFFFFF" stroke-miterlimit="10" x1="1238.5" y1="307" x2="1238.5" y2="297"/>
<line fill="none" stroke="#FFFFFF" stroke-miterlimit="10" x1="1240.5" y1="307" x2="1240.5" y2="297"/>
<line fill="none" stroke="#FFFFFF" stroke-miterlimit="10" x1="1236.5" y1="307" x2="1236.5" y2="297"/>
<line fill="none" stroke="#FFFFFF" stroke-miterlimit="10" x1="1232.5" y1="307" x2="1232.5" y2="297"/>
<line fill="none" stroke="#FFFFFF" stroke-miterlimit="10" x1="1234.5" y1="307" x2="1234.5" y2="297"/>
<line fill="none" stroke="#FFFFFF" stroke-miterlimit="10" x1="1230.5" y1="307" x2="1230.5" y2="297"/>
<line fill="none" stroke="#FFFFFF" stroke-miterlimit="10" x1="1228.5" y1="307" x2="1228.5" y2="297"/>
<line fill="none" stroke="#FFFFFF" stroke-miterlimit="10" x1="1224.5" y1="307" x2="1224.5" y2="297"/>
<line fill="none" stroke="#FFFFFF" stroke-miterlimit="10" x1="1226.5" y1="307" x2="1226.5" y2="297"/>
<line fill="none" stroke="#FFFFFF" stroke-miterlimit="10" x1="1222.5" y1="307" x2="1222.5" y2="297"/>
<line fill="none" stroke="#FFFFFF" stroke-miterlimit="10" x1="1253" y1="309.5" x2="1181" y2="309.5"/>
<circle fill="#FFFFFF" cx="1180.909" cy="309.436" r="0.909"/>
<circle fill="#FFFFFF" cx="1252.909" cy="309.436" r="0.909"/>
<polygon fill="none" stroke="#FFFFFF" stroke-linecap="round" stroke-linejoin="round" stroke-miterlimit="10" points="
	1245.625,312.5 1185.625,312.5 1188.826,315.5 1241.625,315.5 "/>
<line fill="none" stroke="#FFFFFF" stroke-miterlimit="10" x1="1283" y1="164.5" x2="1355" y2="164.5"/>
<circle fill="#FFFFFF" cx="1354.909" cy="164.591" r="0.909"/>
<circle fill="#FFFFFF" cx="1282.909" cy="164.591" r="0.909"/>
<polygon fill="none" stroke="#FFFFFF" stroke-linecap="round" stroke-linejoin="round" stroke-miterlimit="10" points="
	1289.193,161.5 1349.193,161.5 1345.992,158.5 1293.193,158.5 "/>
<line fill="none" stroke="#000000" stroke-miterlimit="10" x1="1356" y1="183.5" x2="1350" y2="183.5"/>
<line fill="none" stroke="#000000" stroke-miterlimit="10" x1="1320" y1="231.5" x2="1314" y2="231.5"/>
<line fill="none" stroke="#000000" stroke-miterlimit="10" x1="1274" y1="279.5" x2="1268" y2="279.5"/>
<circle fill="#FFFFFF" cx="1353.909" cy="168.591" r="0.909"/>
<circle fill="#FFFFFF" cx="1353.909" cy="197.591" r="0.909"/>
<circle fill="#FFFFFF" cx="1317.909" cy="215.591" r="0.909"/>
<circle fill="#FFFFFF" cx="1317.909" cy="245.591" r="0.909"/>
<circle fill="#FFFFFF" cx="1272.909" cy="263.591" r="0.909"/>
<circle fill="#FFFFFF" cx="1272.909" cy="293.591" r="0.909"/>
<line fill="none" stroke="#FFFFFF" stroke-miterlimit="10" x1="1220.5" y1="307" x2="1220.5" y2="297"/>
<line fill="none" stroke="#FFFFFF" stroke-miterlimit="10" x1="1216.5" y1="307" x2="1216.5" y2="297"/>
<line fill="none" stroke="#FFFFFF" stroke-miterlimit="10" x1="1218.5" y1="307" x2="1218.5" y2="297"/>
<line fill="none" stroke="#FFFFFF" stroke-miterlimit="10" x1="1214.5" y1="307" x2="1214.5" y2="297"/>
<polyline fill="none" stroke="#09041E" stroke-miterlimit="10" points="70.069,37.004 70.099,49.141 64.067,54.953 51.788,54.953 
	45.901,49.141 45.901,36.837 "/>
<polygon fill="none" stroke="#09041E" stroke-miterlimit="10" points="97.514,55.547 91.483,61.361 79.203,61.361 73.316,55.547 
	73.309,43.066 79.34,37.254 91.62,37.254 97.506,43.066 "/>
<line fill="none" stroke="#09041E" stroke-miterlimit="10" x1="57.5" y1="55" x2="57.418" y2="61.816"/>
<polyline fill="none" stroke="#09041E" stroke-miterlimit="10" points="125.298,37.141 125.327,55.662 119.296,61.475 
	107.017,61.475 101.13,55.662 101.13,36.973 "/>
<g>
	<g>
		<polyline fill="none" stroke="#09041E" stroke-miterlimit="10" points="128.389,61.887 128.556,37.383 148.024,37.444 
			152.5,41.812 152.5,44.965 147.934,49.378 128.593,49.418 		"/>
	</g>
	<path fill="none" stroke="#09041E" stroke-miterlimit="10" d="M128.667,49.664"/>
	<line fill="none" stroke="#09041E" stroke-miterlimit="10" x1="152.795" y1="61.807" x2="128.89" y2="49.721"/>
</g>
<rect x="70.559" y="44.871" fill="none" width="1.938" height="1.435"/>
<g>
	<line fill="none" stroke="#09041E" stroke-miterlimit="10" x1="299.875" y1="50.582" x2="276.254" y2="50.582"/>
	<polyline fill="none" stroke="#09041E" stroke-miterlimit="10" points="299.792,38.305 275.938,38.305 275.938,62.562 
		299.891,62.562 	"/>
</g>
<polyline fill="none" stroke="#09041E" stroke-miterlimit="10" points="169.729,63.284 169.728,50.646 169.727,44.581 
	175.757,38.769 188.038,38.769 193.924,44.581 193.924,63.315 "/>
<polyline fill="none" stroke="#09041E" stroke-miterlimit="10" points="197.021,63.302 197.02,50.237 197.018,44.173 
	203.049,38.358 215.329,38.358 221.215,44.173 221.215,63.333 "/>
<line fill="none" stroke="#09041E" stroke-miterlimit="10" x1="221.202" y1="50.351" x2="197.02" y2="50.351"/>
<g>
	<polyline fill="none" stroke="#09041E" stroke-miterlimit="10" points="224.597,63 224.595,50.168 224.594,44.102 230.625,38.288 
		242.905,38.288 248.791,44.102 248.791,63 	"/>
	<polyline fill="none" stroke="#09041E" stroke-miterlimit="10" points="248.776,61.709 248.774,50.195 248.773,44.129 
		254.805,38.316 267.085,38.316 272.971,44.129 272.971,63 	"/>
</g>
</svg>
