<svg id="Layer_1" data-name="Layer 1" xmlns="http://www.w3.org/2000/svg" xmlns:xlink="http://www.w3.org/1999/xlink" viewBox="0 0 82.9 117.8"><defs><style>.cls-1{fill:none;}.cls-2{fill:#fff;stroke:#231f20;stroke-miterlimit:10;}.cls-3{isolation:isolate;}.cls-4{clip-path:url(#clip-path);}.cls-5{fill:#231f20;}.cls-6{clip-path:url(#clip-path-2);}.cls-7{clip-path:url(#clip-path-3);}</style><clipPath id="clip-path" transform="translate(-57.92 -41.41)"><polygon class="cls-1" points="76.62 139.17 106.33 122.59 119.81 130.69 90.1 147.27 76.62 139.17"/></clipPath><clipPath id="clip-path-2" transform="translate(-57.92 -41.41)"><polygon class="cls-1" points="78.26 104.45 107.35 88.22 120.33 96.02 91.24 112.25 78.26 104.45"/></clipPath><clipPath id="clip-path-3" transform="translate(-57.92 -41.41)"><polygon class="cls-1" points="76.29 68.9 106.2 52.72 119.48 60.84 89.58 77.01 76.29 68.9"/></clipPath></defs><title>logo_3d_poprawki</title><polygon class="cls-2" points="40.12 117.22 1.44 96.19 43.24 68.79 81.92 89.82 40.12 117.22"/><g class="cls-3"><g class="cls-4"><path class="cls-5" d="M85.85,141.78c-1.24-.74-1.81-1.55-1.76-2.47s.74-1.75,2.09-2.5l15.69-8.76a8.91,8.91,0,0,1,4.42-1.13,7.89,7.89,0,0,1,4.21,1.1c1.26.76,1.85,1.58,1.8,2.51s-.74,1.78-2.09,2.53l-15.69,8.76a8.74,8.74,0,0,1-4.4,1.1,8.09,8.09,0,0,1-4.26-1.14M113,126.62a13.18,13.18,0,0,0-6.83-1.79,14,14,0,0,0-7,1.73l-15.53,8.67c-2.08,1.16-3.16,2.5-3.23,4s.9,2.83,2.86,4A13.38,13.38,0,0,0,90.18,145a13.84,13.84,0,0,0,7-1.71l15.53-8.67c2.08-1.16,3.16-2.5,3.22-4s-.91-2.86-2.89-4.05" transform="translate(-57.92 -41.41)"/></g></g><polygon class="cls-2" points="39.66 83.31 0.97 62.28 42.77 34.88 81.46 55.91 39.66 83.31"/><g class="cls-3"><g class="cls-6"><path class="cls-5" d="M83.37,104.58l24-13.41,3.9,2.34c1.21.73,1.69,1.53,1.47,2.44s-1.22,1.93-2.95,2.9L96.5,106.29a11.73,11.73,0,0,1-5.09,1.57,7.06,7.06,0,0,1-4.14-.93l-3.9-2.34m30.41-12.5-5.34-3.21a2.29,2.29,0,0,0-2.2,0l-26.87,15c-.65.36-.66.89,0,1.27l5.34,3.21a12.48,12.48,0,0,0,7,1.68,16.32,16.32,0,0,0,7.44-2.13l13.35-7.45c2.38-1.33,3.7-2.75,4-4.23s-.63-2.9-2.64-4.1" transform="translate(-57.92 -41.41)"/></g></g><polygon class="cls-2" points="39.66 49.01 0.97 27.98 42.77 0.58 81.46 21.61 39.66 49.01"/><g class="cls-3"><g class="cls-7"><path class="cls-5" d="M96.54,71.85l0,0,.51.3h0l-.49-.32m-.68-.44h0l.07,0-.07,0" transform="translate(-57.92 -41.41)"/><path class="cls-5" d="M105.65,57l-.48-.22-.13-.09a10.32,10.32,0,0,0-1.31-.67l-1.56-.67-.23.06a13.31,13.31,0,0,0-2.74,1.11L83.33,65.09c-2.09,1.13-3.19,2.43-3.27,3.87s.83,2.69,2.62,3.84l.21.13a12.15,12.15,0,0,0,1.66.85,13.64,13.64,0,0,0,5.13,1.06,13.84,13.84,0,0,0,6.92-1.64l1.13-.62L97,72.17l-.51-.3,0,0,0,0-.64-.38-.07,0L95.15,71l-1.22.66a8.61,8.61,0,0,1-4.35,1.06,8.73,8.73,0,0,1-2.12-.29,7.41,7.41,0,0,1-1.5-.58c-.18-.09-.35-.19-.52-.29C84.2,70.8,83.63,70,83.7,69.12s.75-1.69,2.11-2.42l16-8.67a8.51,8.51,0,0,1,3.81-1m.66,0h0m-1.78-2h0l-.44,0-.24,0,.24,0,.46,0" transform="translate(-57.92 -41.41)"/><polyline class="cls-5" points="52.19 23.11 52.15 23.13 52.66 23.41 52.19 23.11"/><path class="cls-5" d="M112.8,56.76a13.23,13.23,0,0,0-6.7-1.87,14.51,14.51,0,0,0-1.58,0l-.46,0-.24,0-1.89.23.24.1,1.56.67a10.32,10.32,0,0,1,1.31.67l.13.09.48.22h.66a7.9,7.9,0,0,1,4,1.16c1.24.76,1.82,1.56,1.78,2.44S111.32,62.25,110,63l-1.31.71,1.4.85,0,0,0,0,.48.31.69.44,1.21-.64c2.1-1.13,3.19-2.43,3.25-3.86s-.93-2.78-2.93-4" transform="translate(-57.92 -41.41)"/></g></g></svg>