<?xml version="1.0" standalone="no"?>
<!DOCTYPE svg PUBLIC "-//W3C//DTD SVG 1.1//EN" "http://www.w3.org/Graphics/SVG/1.1/DTD/svg11.dtd" >
<svg xmlns="http://www.w3.org/2000/svg">
<metadata></metadata>
<defs>
<font id="helvetica35thinthinthinthin" horiz-adv-x="1138" >
<font-face units-per-em="2048" ascent="1638" descent="-410" />
<missing-glyph horiz-adv-x="569" />
<glyph horiz-adv-x="2048" />
<glyph horiz-adv-x="2048" />
<glyph unicode="&#xd;" horiz-adv-x="681" />
<glyph unicode=" "  horiz-adv-x="569" />
<glyph unicode="&#x09;" horiz-adv-x="569" />
<glyph unicode="&#xa0;" horiz-adv-x="569" />
<glyph unicode="!" horiz-adv-x="530" d="M213 0h104v211h-104v-211zM217 969l25 -594h49l24 594v493h-98v-493z" />
<glyph unicode="&#x22;" horiz-adv-x="645" d="M164 993h78v469h-78v-469zM403 993h78v469h-78v-469z" />
<glyph unicode="#" d="M61 473h240l-65 -473h67l66 473h346l-66 -473h68l65 473h238v68h-227l49 354h235v68h-225l63 450h-67l-64 -450h-346l64 450h-68l-63 -450h-252v-68h241l-49 -354h-250v-68zM379 541l49 354h346l-49 -354h-346z" />
<glyph unicode="$" d="M25 481q0 -129 35.5 -223t101 -155.5t158 -94.5t208.5 -43v-180h66v180q100 2 191.5 24.5t163 72t113.5 127t42 186.5q0 137 -80 231t-270 142l-160 38v635q184 -4 284.5 -92t112.5 -282h78q-8 225 -131 335.5t-344 114.5v100h-66v-100q-150 -4 -245 -49t-140 -108.5 t-59 -123t-14 -108.5q0 -90 30.5 -152.5t81.5 -102.5t112.5 -63.5t137.5 -41.5l96 -23v-682q-209 12 -317.5 128t-108.5 310h-77zM147 1108q0 137 92.5 220t288.5 91v-614l-84 18q-70 16 -122 36t-90.5 50.5t-61.5 79.5t-23 119zM594 43v668l125 -31q160 -39 233.5 -113.5 t73.5 -191.5q0 -86 -34 -149.5t-95 -104.5q-115 -78 -303 -78z" />
<glyph unicode="%" horiz-adv-x="1593" d="M82 1071q0 -154 94 -258t246 -104t246 106.5t94 255.5q0 162 -90 264.5t-248 102.5q-156 0 -249 -105.5t-93 -261.5zM160 1071q0 125 69.5 212t192.5 87t192.5 -86t69.5 -213q0 -119 -72.5 -207t-191.5 -88q-115 0 -187.5 88t-72.5 207zM283 -49h82l952 1511h-82z M831 338q0 -154 94 -258.5t246 -104.5t246 106.5t94 256.5q0 162 -90 264.5t-247 102.5q-156 0 -249.5 -105.5t-93.5 -261.5zM909 338q0 125 70 212t192 87q123 0 193 -86t70 -213q0 -119 -73 -207t-192 -88q-115 0 -187.5 88t-72.5 207z" />
<glyph unicode="&#x26;" horiz-adv-x="1214" d="M88 348q0 -178 122 -275.5t312 -97.5q131 0 239.5 64.5t176.5 177.5l178 -217h105l-238 293q66 147 74 309h-78q0 -115 -49 -244l-348 428q16 12 49 35q63 45 103 78t75 74t55.5 94t20.5 119q0 117 -90 184.5t-217 67.5q-57 0 -112.5 -18.5t-98.5 -51.5q-96 -74 -97 -182 q0 -90 42 -165t126 -175q2 -2 31 -39q-8 -6 -39 -25q-80 -49 -133 -87t-102.5 -89t-78 -114.5t-28.5 -143.5zM166 348q0 66 24.5 120t65.5 97t86 75t119 79q20 12 49 31l377 -469q0 -10 -25.5 -48t-72 -82.5t-115 -76t-152.5 -31.5q-68 0 -131 20.5t-114.5 60.5t-81 97.5 t-29.5 126.5zM348 1186q0 80 70.5 132t159.5 52q90 0 159.5 -52t69.5 -132q0 -59 -22.5 -108.5t-60.5 -89.5t-79 -69.5t-102 -70.5l-6 -4q-16 25 -60 78q-63 78 -96 136t-33 128z" />
<glyph unicode="'" horiz-adv-x="417" d="M170 993h78v469h-78v-469z" />
<glyph unicode="(" horiz-adv-x="493" d="M133 545q0 -240 68.5 -477.5t195.5 -444.5h70q-127 207 -191.5 442.5t-64.5 479.5q0 250 67.5 492.5t194.5 459.5h-72q-127 -217 -197.5 -461.5t-70.5 -490.5z" />
<glyph unicode=")" horiz-adv-x="493" d="M20 -377h72q127 217 197.5 463t70.5 489q0 240 -68.5 477.5t-195.5 444.5h-69q127 -207 191.5 -442.5t64.5 -479.5q0 -250 -66.5 -492.5t-196.5 -459.5z" />
<glyph unicode="*" horiz-adv-x="720" d="M59 1223l254 -84l-166 -209l50 -41l163 217l158 -217l45 41l-155 209l251 84l-20 57l-250 -84v266h-59v-266l-252 84z" />
<glyph unicode="+" horiz-adv-x="1228" d="M98 477h477v-477h78v477h477v78h-477v477h-78v-477h-477v-78z" />
<glyph unicode="," horiz-adv-x="569" d="M205 -190v-68q70 25 100.5 95.5t30.5 162.5v211h-105v-211h43q0 -59 -15 -115.5t-54 -74.5z" />
<glyph unicode="-" horiz-adv-x="720" d="M141 518h439v78h-439v-78z" />
<glyph unicode="." horiz-adv-x="569" d="M231 0h105v211h-105v-211z" />
<glyph unicode="/" horiz-adv-x="681" d="M-27 -35h84l652 1532h-84z" />
<glyph unicode="0" d="M57 707q0 -139 24.5 -266.5t83 -233t159 -169t245.5 -63.5t247 63.5t159 169t81.5 232.5t24.5 267q0 139 -24.5 266t-81.5 233.5t-158.5 169t-247.5 62.5q-145 0 -246.5 -63.5t-159 -168t-82 -232.5t-24.5 -267zM135 707q0 121 19.5 234.5t67.5 210.5t135 157.5t212 60.5 t212 -60.5t135.5 -157.5t68 -211t19.5 -234q0 -121 -19.5 -235t-68 -211t-135.5 -157.5t-212 -60.5t-212 60.5t-135 157.5t-67.5 211t-19.5 235z" />
<glyph unicode="1" d="M221 1081q109 10 207 56.5t172 124.5v-1262h78v1413h-70q-63 -106 -163.5 -176t-223.5 -88v-68z" />
<glyph unicode="2" d="M94 0h942v78h-843q8 109 124 217q47 43 104.5 85t153.5 105l41 27q90 61 157 114.5t122 118t87 141.5t32 165q0 186 -124 286.5t-315 100.5q-422 0 -446 -502h78q0 193 97 313.5t284 120.5q143 0 245.5 -88t102.5 -229q0 -82 -32 -152t-85 -127t-117.5 -105t-160.5 -112 l-15 -10q-100 -66 -166.5 -117t-126 -114.5t-96.5 -142.5t-43 -173z" />
<glyph unicode="3" d="M74 467q0 -242 130 -367t359 -125q209 0 346.5 107.5t137.5 308.5q0 145 -84 245.5t-226 117.5v4q125 16 201 106t76 217q0 92 -37 160t-100.5 112t-144.5 64.5t-169 20.5q-209 0 -330.5 -130t-123.5 -341h77q8 184 103.5 293.5t273.5 109.5q66 0 132.5 -17.5t120.5 -53 t87 -91t33 -127.5q0 -84 -35 -141t-96.5 -92t-139 -49.5t-171.5 -14.5v-67q10 0 30 2h31q84 0 157.5 -17.5t132 -56.5t91.5 -101.5t33 -152.5q0 -162 -120 -255t-286 -93q-190 0 -300.5 111.5t-110.5 312.5h-78z" />
<glyph unicode="4" d="M59 360h689v-360h77v360h238v68h-238v985h-77l-689 -975v-78zM137 428l606 879h5v-879h-611z" />
<glyph unicode="5" d="M74 401q0 -98 39 -177t106.5 -134t155.5 -85t186 -30q104 0 193.5 37t153 103.5t98 156.5t34.5 195q0 104 -34.5 192.5t-99 154t-152.5 100t-193 34.5q-109 0 -199 -43t-151 -127l-4 4l121 564h653v67h-715l-147 -731h80q70 100 156.5 149.5t205.5 49.5q86 0 160 -32 t128 -89.5t84 -133t30 -159.5q0 -86 -29 -164t-83 -136t-128 -91t-162 -33q-174 0 -290.5 107.5t-116.5 281.5h-78v-16q-2 -10 -2 -15z" />
<glyph unicode="6" d="M86 637q0 -137 24.5 -255t82 -209t155.5 -144.5t242 -53.5q100 0 187 35t151.5 100.5t99.5 152.5t35 188q0 102 -35 191t-98.5 154.5t-150.5 101.5t-189 36q-141 0 -259 -84t-163 -219l-4 4q0 125 16.5 248t63.5 234.5t136 182t226 70.5q139 0 235.5 -84t119.5 -221h77 q-20 176 -137 274.5t-295 98.5q-156 0 -259 -72t-159.5 -189.5t-79 -254t-22.5 -285.5zM190 451q0 86 30 161.5t83 133t127 89t160 31.5q84 0 156.5 -32.5t127 -91t83 -134.5t28.5 -157q0 -82 -29.5 -157t-83 -131.5t-126 -88t-156.5 -31.5q-82 0 -155 30.5t-128 86 t-86 130.5t-31 161z" />
<glyph unicode="7" d="M115 1346h833q-174 -188 -291.5 -365.5t-185.5 -342.5t-99.5 -316.5t-43.5 -321.5h90q25 250 81 448.5t135 351t172 273.5t220 262v78h-911v-67z" />
<glyph unicode="8" d="M80 406q0 -209 137 -320t352 -111t352.5 111t137.5 320q0 152 -84 250t-230 114v4q127 25 194 107t67 202q0 96 -36 165t-97.5 111t-139.5 60.5t-164 18.5t-163.5 -18.5t-139 -60.5t-97.5 -111t-36 -165q0 -121 66.5 -202.5t193.5 -106.5v-4q-143 -16 -228 -114.5 t-85 -249.5zM158 406q0 86 31.5 148t91.5 105q109 76 288 76q180 0 289 -76q59 -41 91 -104t32 -149q0 -176 -118 -269.5t-294 -93.5t-293.5 93t-117.5 270zM211 1083q0 78 28.5 133.5t79 89t114 49t136.5 15.5q74 0 137.5 -15.5t113.5 -49t79 -89t29 -133.5q0 -72 -29 -126 t-80 -87.5t-114.5 -50t-135.5 -16.5t-135 16.5t-114.5 50t-80 88t-28.5 125.5z" />
<glyph unicode="9" d="M94 963q0 -104 35 -193.5t98.5 -155t151.5 -100.5t192 -35q156 0 260.5 80t151.5 207l4 -4q0 -115 -16.5 -233.5t-62.5 -230.5t-136 -183.5t-227 -71.5q-139 0 -235.5 84t-119.5 221h-77q20 -176 137 -274.5t295 -98.5q156 0 259 72t160.5 189.5t79 254t21.5 285.5 q0 201 -44 334t-115.5 203.5t-156.5 97.5t-178 27q-102 0 -189 -35t-152.5 -98.5t-100.5 -151.5t-35 -190zM172 963q0 82 29.5 156.5t85 131t129 88t155.5 31.5q84 0 157 -30.5t128 -88t85 -131t30 -157.5t-30 -161t-83 -134.5t-127 -89t-160 -31.5q-84 0 -156.5 32.5 t-127 91t-85 134.5t-30.5 158z" />
<glyph unicode=":" horiz-adv-x="569" d="M231 0h105v211h-105v-211zM231 842h105v211h-105v-211z" />
<glyph unicode=";" horiz-adv-x="569" d="M205 -190v-68q70 25 100.5 95.5t30.5 162.5v211h-105v-211h43q0 -59 -15 -115.5t-54 -74.5zM231 842h105v211h-105v-211z" />
<glyph unicode="&#x3c;" horiz-adv-x="1228" d="M94 467l1041 -483v86l-973 450l973 447v86l-1041 -480v-106z" />
<glyph unicode="=" horiz-adv-x="1228" d="M98 281h1032v77h-1032v-77zM98 678h1032v78h-1032v-78z" />
<glyph unicode="&#x3e;" horiz-adv-x="1228" d="M94 -16l1041 479v106l-1041 484v-86l973 -451l-973 -446v-86z" />
<glyph unicode="?" horiz-adv-x="1062" d="M88 1010h78q0 182 96 295.5t275 113.5q139 0 234 -72.5t95 -216.5q0 -96 -52 -171.5t-150 -167.5q-86 -84 -133.5 -177.5t-47.5 -242.5h78q0 84 17.5 148.5t45 111.5t58.5 77.5t78 71.5l2 2l8 9q90 86 132 155.5t42 183.5q0 178 -113.5 272.5t-287.5 94.5 q-217 0 -336 -132t-119 -355zM473 0h105v211h-105v-211z" />
<glyph unicode="@" horiz-adv-x="1638" d="M94 737q0 -158 57.5 -299t162 -247.5t244.5 -166t300 -59.5q201 0 380 102.5t273 276.5h-90q-92 -141 -243.5 -226t-319.5 -85q-127 0 -251 51t-222 144.5t-155.5 220t-57.5 274.5q0 141 53.5 269t148.5 227.5t219 155t261 55.5q115 0 224.5 -40t197.5 -115t139 -179.5 t51 -229.5q0 -86 -30.5 -177t-84 -169t-120 -125t-133.5 -47q-33 0 -56.5 19.5t-23.5 50.5q0 16 8 43.5t21 64.5q0 4 4 15l196 606h-84l-47 -146h-4q-12 78 -73.5 132.5t-155.5 54.5q-102 0 -191.5 -53.5t-155 -143.5t-101.5 -198.5t-36 -214.5q0 -127 74 -217.5t189 -90.5 q84 0 154.5 38t119.5 108h4q2 -70 40 -108t95 -38q78 0 162 48.5t153.5 132.5t111.5 190.5t42 218.5q0 137 -53 254t-148.5 203t-222.5 133t-270 47q-152 0 -289 -58.5t-242.5 -164t-165 -243.5t-59.5 -294zM477 588q0 82 30 175t83 175t124.5 132t155.5 50q61 0 99.5 -24.5 t58 -62.5t25.5 -78t6 -76q0 -82 -38 -189.5t-95 -189.5q-51 -72 -116 -117t-122 -45q-90 0 -150.5 68.5t-60.5 181.5z" />
<glyph unicode="A" horiz-adv-x="1214" d="M-25 0h97l186 469h700l185 -469h96l-577 1462h-99zM287 547l325 827h4l314 -827h-643z" />
<glyph unicode="B" horiz-adv-x="1290" d="M129 0h586q233 0 371.5 106.5t138.5 303.5q0 98 -40 168.5t-96.5 111.5t-109.5 59.5t-84 18.5l-4 4q125 14 205 103.5t80 207.5q0 74 -25 141.5t-78 121t-143 85t-215 31.5h-586v-1462zM219 78v643h496q80 0 152.5 -14.5t133 -49t97.5 -96t37 -151.5q0 -160 -112 -246 t-308 -86h-496zM219 799v585h496q78 0 143.5 -15t116.5 -49t80.5 -89t29.5 -131q0 -137 -96 -219t-274 -82h-496z" />
<glyph unicode="C" horiz-adv-x="1441" d="M74 731q0 -160 47 -300t138 -244.5t221 -163t290 -58.5q119 0 225.5 45t189.5 127t134 192.5t63 239.5h-90q-6 -100 -48 -195t-113.5 -170t-164 -118t-196.5 -43q-139 0 -253 53.5t-192.5 148.5t-119.5 220t-41 266t41 266t119.5 220.5t192.5 148.5t253 53 q188 0 328.5 -106.5t169.5 -286.5h90q-2 29 -25.5 100.5t-85 157.5t-180.5 149.5t-297 63.5q-160 0 -290 -58.5t-221 -163t-138 -244.5t-47 -300z" />
<glyph unicode="D" horiz-adv-x="1366" d="M129 0h475q172 0 301 55.5t213 154.5t125 232t41 291q0 147 -33.5 276.5t-111.5 231.5t-210 161.5t-321 59.5h-479v-1462zM219 78v1306h375q104 0 201.5 -20.5t189.5 -87t150.5 -199.5t58.5 -344q0 -180 -50 -308t-134 -205t-185.5 -109.5t-212.5 -32.5h-393z" />
<glyph unicode="E" horiz-adv-x="1146" d="M129 0h993v78h-903v643h840v78h-840v585h893v78h-983v-1462z" />
<glyph unicode="F" horiz-adv-x="1052" d="M129 0h90v721h746v78h-746v585h828v78h-918v-1462z" />
<glyph unicode="G" horiz-adv-x="1517" d="M76 723q0 -158 45 -296t134 -241.5t218 -162t291 -58.5q197 0 348.5 94.5t204.5 251.5h4v-311h78v717h-617v-78h539q0 -279 -149.5 -437.5t-403.5 -158.5q-145 0 -259 52t-190.5 145.5t-114.5 217.5t-38 265q0 139 39 265t115.5 223.5t190.5 152.5t257 55 q197 0 333 -108.5t187 -300.5h86q-18 111 -72.5 202t-137.5 155.5t-184 97t-214 32.5q-160 0 -289 -60.5t-219 -169t-136 -248.5t-46 -296z" />
<glyph unicode="H" horiz-adv-x="1372" d="M129 0h90v721h934v-721h90v1462h-90v-663h-934v663h-90v-1462z" />
<glyph unicode="I" horiz-adv-x="348" d="M129 0h90v1462h-90v-1462z" />
<glyph unicode="J" horiz-adv-x="985" d="M41 465q0 -104 11 -185t51 -154t126 -117t226 -44q139 0 223 46t122 119t47 149.5t9 175.5v1007h-90v-977q0 -113 -8 -185.5t-39 -130.5t-97.5 -92t-177.5 -34q-92 0 -154.5 26.5t-98 75t-49 109.5t-13.5 137v37q2 29 2 37h-90z" />
<glyph unicode="K" horiz-adv-x="1255" d="M129 0h90v516l303 277l662 -793h112l-708 854l667 608h-116l-920 -841v841h-90v-1462z" />
<glyph unicode="L" horiz-adv-x="1024" d="M129 0h920v78h-830v1384h-90v-1462z" />
<glyph unicode="M" horiz-adv-x="1656" d="M129 0h90v1352h4l563 -1352h91l557 1352h4v-1352h90v1462h-129l-565 -1362h-5l-571 1362h-129v-1462z" />
<glyph unicode="N" horiz-adv-x="1388" d="M129 0h90v1352h4l930 -1352h107v1462h-91v-1341h-4l-923 1341h-113v-1462z" />
<glyph unicode="O" horiz-adv-x="1517" d="M63 731q0 -160 47.5 -300t138.5 -244.5t221 -163t290 -58.5t290 58.5t220 163t137 244.5t47 300t-47 300t-137 244.5t-220 163t-290 58.5t-290 -58.5t-221 -163t-138.5 -244.5t-47.5 -300zM154 731q0 141 41 266t119.5 220.5t192.5 148.5t253 53t251.5 -53t191.5 -148.5 t120 -220.5t41 -266q0 -139 -41 -265t-120 -221t-191.5 -148.5t-251.5 -53.5t-253 53.5t-192.5 148.5t-119.5 220t-41 266z" />
<glyph unicode="P" horiz-adv-x="1210" d="M129 0h90v651h500q219 0 339 105.5t120 296.5q0 125 -41 206.5t-104.5 126t-135.5 60.5t-145 16h-623v-1462zM219 729v655h526q102 0 171 -33.5t106 -85t51 -106.5t14 -104q0 -59 -19 -116.5t-61 -105t-111 -76t-163 -28.5h-514z" />
<glyph unicode="Q" horiz-adv-x="1517" d="M63 731q0 -160 47.5 -300t138.5 -244.5t221 -163t290 -58.5q242 0 414 133l241 -174l47 64l-227 164q106 102 162.5 251.5t56.5 327.5q0 160 -47 300t-137 244.5t-220 163t-290 58.5t-290 -58.5t-221 -163t-138.5 -244.5t-47.5 -300zM154 731q0 141 41 266t119.5 220.5 t192.5 148.5t253 53t251.5 -53t191.5 -148.5t120 -220.5t41 -266q0 -158 -51 -296t-150 -232l-235 170l-47 -64l221 -157q-143 -109 -342 -109q-139 0 -253 53.5t-192.5 148.5t-119.5 220t-41 266z" />
<glyph unicode="R" horiz-adv-x="1290" d="M129 0h90v666h520q92 0 157 -19.5t103.5 -54.5t57 -79t26.5 -103q4 -27 4 -67v-132q0 -72 7.5 -123t27.5 -88h101q-27 37 -34 92t-9 158q-2 96 -6 143q-6 61 -21.5 112.5t-47.5 94.5t-85 70.5t-131 36.5v4q145 25 229 126t84 248q0 102 -34.5 175t-97 117t-146.5 64.5 t-185 20.5h-610v-1462zM219 743v641h520q76 0 143.5 -17t119 -54t81 -95.5t29.5 -138.5q0 -168 -101.5 -252t-271.5 -84h-520z" />
<glyph unicode="S" horiz-adv-x="1290" d="M80 483q0 -137 47 -237.5t131 -161.5t194.5 -90t243.5 -29q90 0 179.5 22.5t166 73t122.5 129t46 187.5q0 104 -40 175t-109.5 114t-150.5 67.5t-199 48.5l-37 9q-111 23 -185.5 42t-138 53t-100.5 88t-37 134q0 86 37 147.5t97.5 97.5t130 51t136.5 15q209 0 335 -96 t134 -279h91q-4 117 -48.5 204t-120 142.5t-175 81t-216.5 25.5q-90 0 -177 -22.5t-158.5 -69.5t-113.5 -122t-42 -175q0 -98 41 -167t109.5 -109.5t147.5 -64.5t200 -48l22 -4q121 -25 195.5 -45.5t140 -55t103.5 -93t38 -144.5q0 -90 -39 -155.5t-102.5 -104.5t-137 -56.5 t-145.5 -17.5q-109 0 -203 22.5t-167.5 71.5t-114.5 128t-41 186v16v16h-90z" />
<glyph unicode="T" horiz-adv-x="1062" d="M-29 1384h514v-1384h90v1384h517v78h-1121v-78z" />
<glyph unicode="U" horiz-adv-x="1376" d="M129 586q0 -100 16.5 -198.5t69.5 -196t167 -162t296 -64.5q160 0 270.5 46t176 130t94 196t28.5 249v876h-90v-876q0 -129 -25.5 -228.5t-81 -169t-147.5 -107.5t-225 -38q-147 0 -241.5 55.5t-140.5 140.5t-61.5 173t-15.5 174v876h-90v-876z" />
<glyph unicode="V" d="M-29 1462l545 -1462h105l546 1462h-90l-506 -1384h-4l-501 1384h-95z" />
<glyph unicode="W" horiz-adv-x="1820" d="M-12 1462l422 -1462h100l395 1384h4l402 -1384h102l420 1462h-96l-375 -1366h-4l-393 1366h-113l-387 -1366h-4l-381 1366h-92z" />
<glyph unicode="X" d="M-35 0h107l497 684l496 -684h109l-545 752l516 710h-103l-473 -643l-463 643h-104l512 -710z" />
<glyph unicode="Y" horiz-adv-x="1175" d="M-43 1462l584 -850v-612h90v612l588 850h-101l-530 -774l-529 774h-102z" />
<glyph unicode="Z" horiz-adv-x="1099" d="M-2 0h1104v78h-1010l991 1306v78h-1026v-78h928l-987 -1306v-78z" />
<glyph unicode="[" horiz-adv-x="493" d="M193 -377h280v68h-203v1739h203v67h-280v-1874z" />
<glyph unicode="\" horiz-adv-x="681" d="M-27 1497l652 -1532h84l-652 1532h-84z" />
<glyph unicode="]" horiz-adv-x="493" d="M20 -309v-68h281v1874h-281v-67h203v-1739h-203z" />
<glyph unicode="^" horiz-adv-x="1228" d="M80 485h86l450 861l447 -861h86l-479 928h-107z" />
<glyph unicode="_" horiz-adv-x="1024" d="M0 -154v-102h1024v102h-1024z" />
<glyph unicode="`" horiz-adv-x="342" d="M-61 1497l274 -287h76l-246 287h-104z" />
<glyph unicode="a" horiz-adv-x="1024" d="M66 272q0 -156 95 -226.5t257 -70.5q143 0 247.5 67t143.5 167h4v-55q0 -76 28.5 -115t112.5 -39q18 0 58 8h6v66q-37 -6 -57 -6q-47 0 -58.5 32.5t-11.5 94.5v608q0 78 -30 132t-82 85t-116.5 44t-140.5 13q-188 0 -290.5 -88t-110.5 -260h78q8 135 94 208t229 73 q84 0 142.5 -23.5t91 -58.5t46 -69t13.5 -56q0 -72 -9 -108t-43 -57.5t-103.5 -32.5t-206.5 -21q-76 -6 -141.5 -21.5t-122 -49.5t-90 -93.5t-33.5 -147.5zM143 272q0 115 73 171.5t216 72.5q37 6 119 12q111 8 171 21.5t91 48.5v-197q0 -35 -14.5 -90t-55.5 -117.5 t-120.5 -106.5t-202.5 -44q-133 0 -205 64.5t-72 164.5z" />
<glyph unicode="b" d="M133 0h78v236h4q8 -27 33.5 -70t74 -87t122 -74t169.5 -30q68 0 142.5 22.5t147.5 83t120 177.5t47 293q0 231 -116.5 378.5t-340.5 147.5q-133 0 -244.5 -64.5t-154.5 -183.5h-4v633h-78v-1462zM213 551q0 207 101.5 333t299.5 126q92 0 163 -37t120 -102.5t72.5 -147.5 t23.5 -172q0 -96 -21.5 -185.5t-66.5 -163t-119 -116.5t-172 -43q-102 0 -180 41t-127 113.5t-71.5 163t-22.5 190.5z" />
<glyph unicode="c" horiz-adv-x="1062" d="M68 537q0 -113 28.5 -214.5t87 -179t151.5 -123t216 -45.5q174 0 297 105.5t147 290.5h-77q-20 -145 -121 -236.5t-246 -91.5q-197 0 -301.5 135t-104.5 359q0 92 27 177t79 151.5t128 105.5t172 39q147 0 246.5 -74t109.5 -209h78q-16 172 -135 261t-299 89 q-113 0 -204 -42t-153.5 -116.5t-94 -173t-31.5 -208.5z" />
<glyph unicode="d" d="M66 524q0 -113 26.5 -211t82.5 -175t143.5 -120t201.5 -43q274 0 404 250h4v-225h78v1462h-78v-645h-4q-41 121 -148.5 190.5t-240.5 69.5q-229 0 -349 -153.5t-120 -399.5zM143 524q0 98 22.5 185.5t70 155t123 106.5t176.5 39q98 0 172.5 -40t123 -108.5t72 -156 t23.5 -181.5q0 -92 -23.5 -178t-73 -154.5t-123 -108.5t-169.5 -40q-98 0 -173 39t-124.5 106.5t-73 153.5t-23.5 182z" />
<glyph unicode="e" horiz-adv-x="1062" d="M68 508q0 -231 122.5 -382t341.5 -151q188 0 306 98.5t149 282.5h-78q-27 -145 -127 -229t-250 -84q-184 0 -285.5 136t-101.5 337h850v21q2 12 2 18q0 109 -28.5 203t-87 166.5t-146.5 112.5t-203 40q-113 0 -200.5 -46t-146 -126t-88 -182t-29.5 -215zM145 584 q6 80 35 155.5t79 137t120 97.5t153 36q88 0 160 -35t121 -94.5t75.5 -136t29.5 -160.5h-773z" />
<glyph unicode="f" horiz-adv-x="493" d="M0 985h188v-985h78v985h219v68h-219v211q0 82 41 114.5t113 32.5q41 0 92 -10v67q-51 10 -92 11q-102 0 -167 -52.5t-65 -156.5v-217h-188v-68z" />
<glyph unicode="g" horiz-adv-x="1099" d="M68 559q0 -231 115.5 -375.5t338.5 -144.5q268 0 381 240h4v-242q0 -47 -9 -102.5t-45 -118t-113.5 -106.5t-207.5 -44q-139 0 -231 63.5t-104 196.5h-78q8 -172 118.5 -249.5t292.5 -77.5q158 0 254.5 54t138.5 132t52 144.5t10 125.5v998h-78v-219h-4 q-41 115 -147.5 179t-233.5 64q-109 0 -193.5 -41t-143 -112.5t-88 -164.5t-29.5 -200zM145 559q0 86 24 167t71 145.5t118.5 101.5t163.5 37q184 0 289 -138q47 -61 70.5 -142t23.5 -171q0 -190 -100 -321.5t-283 -131.5q-178 0 -277.5 129.5t-99.5 323.5z" />
<glyph unicode="h" horiz-adv-x="1062" d="M115 0h78v569q0 197 102 319t276 122q100 0 163 -36t91.5 -90.5t36.5 -107.5t8 -110v-666h78v651q0 74 -8 138.5t-44 131t-115 111.5t-208 45q-127 0 -232 -67.5t-144 -182.5h-4v635h-78v-1462z" />
<glyph unicode="i" horiz-adv-x="344" d="M133 0h78v1053h-78v-1053zM133 1251h78v211h-78v-211z" />
<glyph unicode="j" horiz-adv-x="344" d="M-70 -307v-68q20 -2 66 -2q66 0 107.5 20.5t65.5 56.5t33 82t9 105v1166h-78v-1159q0 -119 -33.5 -162t-117.5 -43q-27 0 -52 4zM133 1251h78v211h-78v-211z" />
<glyph unicode="k" horiz-adv-x="948" d="M119 0h78v397l239 203l449 -600h106l-493 659l460 394h-112l-649 -559v968h-78v-1462z" />
<glyph unicode="l" horiz-adv-x="344" d="M133 0h78v1462h-78v-1462z" />
<glyph unicode="m" horiz-adv-x="1630" d="M117 0h78v623q0 96 29.5 170.5t78.5 122t108.5 71t116.5 23.5q35 0 75 -9.5t80 -39t66.5 -89t26.5 -151.5v-721h78v623q0 184 91 285.5t239 101.5q33 0 72.5 -9.5t80.5 -38t70 -88t29 -153.5v-721h77v719q0 178 -90 268t-239 90q-125 0 -206 -56t-128 -167h-4 q-18 92 -98 157.5t-220 65.5q-117 0 -211 -69.5t-118 -169.5h-4v215h-78v-1053z" />
<glyph unicode="n" horiz-adv-x="1062" d="M115 0h78v569q0 197 102 319t276 122q100 0 163 -36t91.5 -90.5t36.5 -107.5t8 -110v-666h78v651q0 74 -8 138.5t-44 131t-115 111.5t-208 45q-127 0 -232 -67.5t-144 -182.5h-4v226h-78v-1053z" />
<glyph unicode="o" horiz-adv-x="1099" d="M66 526q0 -113 32.5 -213t94 -176t152.5 -119t204 -43t203 43t153.5 120t95 176.5t31.5 211.5q0 113 -31.5 213.5t-94 176t-153.5 118.5t-204 43t-203 -43t-153.5 -118.5t-95 -176t-31.5 -213.5zM143 526q0 96 27 183.5t79 155t128 106.5t172 39t172 -39t128 -106.5 t78.5 -154.5t26.5 -184q0 -96 -26.5 -183t-78.5 -154.5t-128 -106.5t-172 -39t-172 39t-128 106.5t-79 154.5t-27 183z" />
<glyph unicode="p" d="M133 -377h78v596h4q45 -123 145.5 -183.5t237.5 -60.5q233 0 353 149.5t120 399.5q0 115 -28.5 214.5t-88 176t-148.5 119.5t-208 43q-82 0 -148.5 -25.5t-113.5 -65.5t-77 -86t-44 -89h-4v242h-78v-1430zM213 524q0 98 21.5 185.5t67.5 155t120 106.5t176 39t178 -40 t124 -109.5t70.5 -157t22.5 -179.5q0 -100 -23.5 -187t-72.5 -152.5t-124 -103.5t-175 -38q-106 0 -182 39t-120 105.5t-63.5 151.5t-19.5 185z" />
<glyph unicode="q" d="M66 528q0 -246 119.5 -399.5t349.5 -153.5q133 0 240.5 70t148.5 191h4v-613h78v1430h-78v-226h-4q-129 250 -404 250q-115 0 -202 -43t-143 -119.5t-82.5 -175t-26.5 -211.5zM143 528q0 96 23.5 182.5t73 154t124 106.5t173.5 39q96 0 169.5 -40t123 -108.5t73 -154.5 t23.5 -179q0 -94 -23.5 -181t-73 -155.5t-123 -108.5t-171.5 -40q-100 0 -175 39t-123.5 106.5t-71 154.5t-22.5 185z" />
<glyph unicode="r" horiz-adv-x="569" d="M115 0h78v575q6 115 31.5 177.5t86.5 126.5q55 55 122 79.5t130 24.5h21q12 -2 18 -2v78q-150 0 -261.5 -68.5t-141.5 -171.5h-6v234h-78v-1053z" />
<glyph unicode="s" horiz-adv-x="985" d="M74 350q4 -178 121.5 -276.5t304.5 -98.5q74 0 145.5 14.5t132 48.5t97 91t36.5 137t-27.5 134.5t-76.5 87t-111.5 51t-156.5 36.5q-12 2 -33 7q-80 18 -129 31.5t-93 37t-70 62.5t-26 94q0 53 26 93t70 63.5t97 35t111 11.5q141 0 225 -65.5t86 -203.5h78 q0 172 -105.5 254t-283.5 82q-72 0 -138.5 -13t-122 -45t-88 -85t-32.5 -127q0 -76 29.5 -129t79.5 -85t110.5 -50.5t142.5 -34.5l29 -6q82 -16 135 -30.5t98 -39t72 -64.5t27 -102q0 -66 -31 -109.5t-81 -68.5t-106.5 -35t-115.5 -10q-145 0 -242.5 82t-105.5 225h-78z" />
<glyph unicode="t" horiz-adv-x="530" d="M0 985h195v-735q0 -76 19 -126t53 -78t78 -38t99 -10h27q25 2 29 2v68q-127 0 -177.5 34.5t-50.5 147.5v735h230v68h-230v327h-77v-327h-195v-68z" />
<glyph unicode="u" horiz-adv-x="1062" d="M115 401q0 -74 8 -138t44 -130.5t114.5 -112t207.5 -45.5q127 0 232.5 68t144.5 182h4v-225h78v1053h-78v-570q0 -197 -102 -318.5t-276 -121.5q-100 0 -163 36t-91.5 90t-36.5 107.5t-8 110.5v666h-78v-652z" />
<glyph unicode="v" horiz-adv-x="909" d="M-4 1053l424 -1053h96l397 1053h-86l-356 -963h-4l-381 963h-90z" />
<glyph unicode="w" horiz-adv-x="1441" d="M-4 1053l334 -1053h98l291 954h4l289 -954h96l338 1053h-86l-295 -963h-4l-289 963h-104l-287 -963h-4l-297 963h-84z" />
<glyph unicode="x" horiz-adv-x="909" d="M-12 0h98l369 494l360 -494h107l-416 553l381 500h-101l-331 -441l-330 441h-109l385 -500z" />
<glyph unicode="y" horiz-adv-x="909" d="M-12 1053l440 -1047q-43 -119 -65.5 -173t-43.5 -75q-39 -39 -87 -53t-132 -14v-68q100 0 153.5 8.5t92.5 38.5q31 25 57.5 74t65.5 143l451 1166h-89l-360 -961l-391 961h-92z" />
<glyph unicode="z" horiz-adv-x="872" d="M18 0h836v68h-741l708 911v74h-747v-68h651l-707 -911v-74z" />
<glyph unicode="{" horiz-adv-x="681" d="M170 520q43 -2 71.5 -29.5t46 -73.5t23.5 -102.5t6 -126.5v-323q0 -133 45.5 -187.5t135.5 -54.5h102v68h-98q-61 0 -84 46t-23 165v321q0 84 -13 143.5t-33.5 96.5t-39 55.5t-43.5 36.5q-12 8 -14 10q2 2 4 2q20 10 41.5 26.5t44.5 52.5t38 98.5t15 152.5v322 q0 119 22.5 165t84.5 46h98v67h-102q-90 0 -135.5 -54t-45.5 -188v-325q0 -70 -6 -126t-23.5 -102.5t-46 -74t-71.5 -29.5v-78z" />
<glyph unicode="|" horiz-adv-x="454" d="M188 -438h78v2048h-78v-2048z" />
<glyph unicode="}" horiz-adv-x="681" d="M82 -309v-68h102q90 0 135.5 54.5t45.5 187.5v323q0 70 7 126.5t23.5 102.5t45 73.5t71.5 29.5v78q-43 2 -71.5 29.5t-45 74t-23.5 102.5t-7 126v325q0 133 -45.5 187.5t-135.5 54.5h-102v-67h98q61 0 84 -46.5t23 -164.5v-322q0 -90 15 -152.5t37.5 -98.5t43 -51 t43.5 -28q2 0 4 -2q-2 -2 -14 -10q-23 -16 -42.5 -35.5t-40 -56.5t-33.5 -96.5t-13 -143.5v-321q0 -119 -22.5 -165t-84.5 -46h-98z" />
<glyph unicode="~" horiz-adv-x="1228" d="M150 455l59 -62q29 66 76 110t127 44q35 0 89 -19.5t99 -42.5q80 -41 131 -59t103 -18q80 0 139 48t108 126l-57 57q-31 -59 -83 -106.5t-105 -47.5q-45 0 -83 14.5t-87 39.5q-33 18 -39 20l-6 2q-82 37 -124 50.5t-98 13.5q-88 0 -142 -42t-107 -128z" />
<glyph unicode="&#xa1;" horiz-adv-x="530" d="M213 885h104v211h-104v-211zM215 117v-494h98v494l-24 594h-49z" />
<glyph unicode="&#xa2;" d="M104 537q0 -111 27 -209.5t82 -176t141 -123.5t203 -53v-217h66v217q164 10 274.5 116t134.5 280h-78q-18 -137 -108 -227.5t-223 -100.5v967q137 -10 224 -83t97 -200h78q-14 164 -122.5 253t-276.5 97v183h-66v-183q-106 -4 -191 -49t-143.5 -119.5t-88.5 -170 t-30 -201.5zM182 537q0 88 24.5 169.5t73 148.5t119 108t158.5 47v-967q-182 10 -278.5 145.5t-96.5 348.5z" />
<glyph unicode="&#xa3;" d="M90 35l51 -70l11 6q74 47 120.5 65.5t114.5 18.5q43 0 86 -10t105 -33l6 -2q68 -23 117 -34t104 -11q84 0 165 41t144 109l-45 67q-74 -68 -134.5 -103.5t-141.5 -35.5q-59 0 -168 37l-19 6q-59 23 -107 35t-106 12q-49 0 -95 -19.5t-97 -54.5l-4 4q86 74 144 178.5 t58 213.5q0 74 -13 131t-34 90h289v67h-328q-10 23 -37 72q-47 86 -71.5 151.5t-24.5 141.5q0 143 105.5 227t283.5 84q205 0 302.5 -108.5t99.5 -319.5h78q0 254 -123 380t-359 126q-92 0 -176 -25.5t-149.5 -75.5t-102.5 -124t-37 -168q0 -88 32 -171t91 -190h-123v-67 h160q27 -41 43.5 -99.5t16.5 -117.5q0 -123 -61.5 -221.5t-170.5 -202.5z" />
<glyph unicode="&#xa4;" d="M61 707q4 -186 125 -330l-114 -113l55 -55l113 115q139 -125 327 -125q90 0 175 31.5t157 93.5l109 -111l55 55l-111 111q61 68 93 152.5t32 175.5q0 90 -31.5 175t-93.5 154l113 111l-55 55l-111 -112q-72 61 -157 92.5t-175 31.5q-186 -4 -327 -122l-115 114l-55 -55 l116 -115q-61 -70 -93 -154.5t-32 -174.5zM152 707q0 88 32.5 165.5t91 138t135 93.5t158.5 33q84 0 160 -33t134.5 -93.5t91 -138t32.5 -165.5t-32.5 -166t-91 -138.5t-134.5 -93.5t-160 -33q-82 0 -158.5 33t-135 93.5t-91 138t-32.5 166.5z" />
<glyph unicode="&#xa5;" d="M-14 1462l487 -762h-188v-67h245v-160h-245v-67h245v-406h78v406h246v67h-246v160h246v67h-188l487 762h-92l-490 -766l-487 766h-98z" />
<glyph unicode="&#xa6;" horiz-adv-x="454" d="M188 -182h78v512h-78v-512zM188 842h78v512h-78v-512z" />
<glyph unicode="&#xa7;" d="M106 690q0 -72 27 -130t76 -105t103.5 -83t152.5 -93l8 -5l29 -14q88 -49 140 -81t98 -71.5t74 -90t28 -111.5q0 -109 -71 -162t-198 -53q-139 0 -213.5 91t-78.5 236h-78q0 -178 99 -286.5t273 -108.5q152 0 248.5 68.5t96.5 214.5q0 84 -27 138t-90 114 q104 29 165.5 97.5t61.5 180.5q0 78 -29.5 139.5t-80 107.5t-105.5 80t-149 81l-2 2l-25 12q-84 45 -137 77t-99.5 72t-74 92t-27.5 115q2 94 82 155t180 61q127 0 203 -96.5t76 -235.5h78q-2 186 -93.5 292.5t-263.5 106.5q-68 0 -129 -21.5t-109.5 -59.5t-75 -90 t-26.5 -112v-10q-2 -8 -2 -12q0 -55 29 -120.5t84 -106.5q-96 -35 -162 -109t-66 -166zM184 690q0 78 58.5 138.5t140.5 91.5l311 -185q117 -68 187.5 -136.5t70.5 -162.5q0 -47 -19.5 -89t-51.5 -71q-33 -27 -74 -48t-64 -21q-96 61 -284 174l-53 33q-104 63 -163 122.5 t-59 153.5z" />
<glyph unicode="&#xa8;" horiz-adv-x="342" d="M-37 1217h90v210h-90v-210zM287 1217h90v210h-90v-210z" />
<glyph unicode="&#xa9;" horiz-adv-x="1638" d="M53 731q0 -156 59.5 -296t165 -245.5t246 -165t295.5 -59.5q156 0 296 59.5t245.5 165t165 245.5t59.5 296t-59.5 296t-165 245.5t-245.5 165t-296 59.5t-296 -59.5t-245.5 -165t-165 -245.5t-59.5 -296zM131 733q0 145 51 273.5t145.5 223.5t221.5 147.5t272 52.5 t271.5 -53.5t219.5 -148.5t144 -222t51 -273q0 -143 -51 -271t-145 -224.5t-219 -150.5t-271 -54q-143 0 -270 53t-221 150.5t-146.5 225.5t-52.5 271zM379 733q0 -102 32.5 -191t94 -156t147.5 -103.5t189 -36.5q150 0 258 91t127 238h-78q-31 -121 -108.5 -191.5 t-198.5 -70.5q-174 0 -281 125q-51 57 -77.5 134t-26.5 163q0 182 101 297t280 115q119 0 203.5 -66.5t107.5 -183.5h78q-18 150 -128 233.5t-263 83.5q-209 0 -333 -134t-124 -347z" />
<glyph unicode="&#xaa;" horiz-adv-x="634" d="M27 946q0 -106 62.5 -151t172.5 -45q96 0 164 39.5t88 99.5h4v-29q0 -45 18.5 -68.5t73.5 -23.5q12 0 41 4v55q-16 -4 -37 -4q-25 0 -30.5 19.5t-5.5 56.5v365q0 96 -69 135t-179 39q-246 0 -271 -217h66q6 76 60.5 118.5t138.5 42.5q86 0 138 -27.5t52 -80.5 q0 -43 -6 -64.5t-27.5 -35t-66.5 -20.5t-135 -13q-49 -4 -92.5 -13.5t-79 -30t-58 -58.5t-22.5 -93zM92 946q0 63 46 96t134 43q20 2 76 9q68 4 107 12t57 29v-115q0 -20 -9 -54t-36 -71t-79 -63.5t-132 -26.5q-76 0 -120 40t-44 101z" />
<glyph unicode="&#xab;" horiz-adv-x="796" d="M137 516l234 -268v100l-174 209l174 205v104l-234 -268v-82zM399 516l234 -268v100l-174 209l174 205v104l-234 -268v-82z" />
<glyph unicode="&#xac;" horiz-adv-x="1228" d="M98 678h955v-457h77v535h-1032v-78z" />
<glyph unicode="&#xad;" horiz-adv-x="720" d="M141 518h439v78h-439v-78z" />
<glyph unicode="&#xae;" horiz-adv-x="1638" d="M53 731q0 -156 59.5 -296t165 -245.5t246 -165t295.5 -59.5q156 0 296 59.5t245.5 165t165 245.5t59.5 296t-59.5 296t-165 245.5t-245.5 165t-296 59.5t-296 -59.5t-245.5 -165t-165 -245.5t-59.5 -296zM131 731q0 145 51 273.5t145.5 224.5t221.5 148.5t272 52.5 t271.5 -53.5t219.5 -148.5t144 -222t51 -273q0 -143 -51 -271t-145 -224.5t-219 -150.5t-271 -54q-143 0 -270 54t-221 149.5t-146.5 223.5t-52.5 271zM541 279h77v417h236l272 -417h86l-270 415q104 16 169 75.5t65 164.5q0 125 -72 187.5t-223 62.5h-340v-905zM618 764 v352h250q96 0 163 -42t67 -138q0 -55 -24.5 -91t-64.5 -52.5t-88.5 -22.5t-109.5 -6h-193z" />
<glyph unicode="&#xaf;" horiz-adv-x="342" d="M-76 1288h496v68h-496v-68z" />
<glyph unicode="&#xb0;" horiz-adv-x="819" d="M117 1145q0 -123 85 -208t208 -85t207.5 85t84.5 208t-85 208t-207 85q-123 0 -208 -85t-85 -208zM195 1145q0 94 62.5 159.5t152.5 65.5t152.5 -65.5t62.5 -159.5t-62.5 -159.5t-152.5 -65.5t-152.5 65.5t-62.5 159.5z" />
<glyph unicode="&#xb1;" horiz-adv-x="1228" d="M98 0h1032v78h-1032v-78zM98 567h477v-387h78v387h477v78h-477v387h-78v-387h-477v-78z" />
<glyph unicode="&#xb2;" horiz-adv-x="681" d="M33 563h614v55h-549q25 74 79 122t161 112l45 29q123 78 190.5 150.5t67.5 164.5q0 119 -81 180.5t-212 61.5q-152 0 -220.5 -80t-78.5 -230h66q6 123 61 188.5t172 65.5q113 0 170 -54t57 -130q0 -86 -63 -146.5t-190 -138.5l-13 -8q-129 -80 -200.5 -154.5 t-75.5 -187.5z" />
<glyph unicode="&#xb3;" horiz-adv-x="681" d="M37 850q0 -154 88 -229.5t252 -75.5q135 0 224 65.5t89 190.5q0 86 -54 146.5t-147 68.5v4q82 10 131.5 64.5t49.5 129.5q0 113 -85 168.5t-208 55.5q-150 0 -233 -79t-85 -214h66q4 109 65.5 173t176.5 64q90 0 163.5 -44t73.5 -124q0 -94 -79 -134t-208 -40v-55h21 q10 2 20 2q117 0 192 -45t75 -141q0 -90 -77 -145.5t-181 -55.5q-123 0 -194 65.5t-71 184.5h-65z" />
<glyph unicode="&#xb4;" horiz-adv-x="342" d="M53 1210h76l274 287h-104z" />
<glyph unicode="&#xb5;" horiz-adv-x="1062" d="M115 -377h78v467h4q47 -61 123.5 -88t168.5 -27q127 0 232.5 68t144.5 182h4v-225h78v1053h-78v-570q0 -197 -102 -318.5t-276 -121.5q-100 0 -163 36t-91.5 90t-36.5 107.5t-8 110.5v666h-78v-1430z" />
<glyph unicode="&#xb6;" horiz-adv-x="1228" d="M135 1061q0 -80 33 -152.5t90 -127t135 -86t166 -31.5v-963h78v1694h321v-1694h78v1761h-444q-217 0 -337 -103.5t-120 -297.5z" />
<glyph unicode="&#xb7;" horiz-adv-x="569" d="M174 649q0 -43 34 -77.5t77 -34.5q45 0 78.5 33.5t33.5 78.5q0 43 -34.5 77t-77.5 34t-77 -34t-34 -77z" />
<glyph unicode="&#xb8;" horiz-adv-x="342" d="M-18 -358q33 -18 80 -30.5t104 -12.5q98 0 153.5 36.5t55.5 114.5q0 74 -45 112t-109 38q-35 0 -76 -19l-4 4l99 115h-70l-115 -154l33 -26q53 25 109 24q35 0 67.5 -24.5t32.5 -69.5q0 -51 -38 -73.5t-91 -22.5q-41 0 -75 8t-77 25l-12 4z" />
<glyph unicode="&#xb9;" horiz-adv-x="681" d="M121 1214q145 12 239 109v-760h66v856h-59q-41 -59 -106.5 -99t-139.5 -50v-56z" />
<glyph unicode="&#xba;" horiz-adv-x="684" d="M18 1094q0 -152 86 -248t238 -96t238 96t86 248t-86 248t-238 96t-238 -96.5t-86 -247.5zM84 1094q0 123 65.5 205.5t192.5 82.5t192.5 -82.5t65.5 -205.5t-65.5 -206t-192.5 -83t-192.5 83t-65.5 206z" />
<glyph unicode="&#xbb;" horiz-adv-x="796" d="M164 248l233 268v82l-233 268v-104l174 -205l-174 -209v-100zM426 248l233 268v82l-233 268v-104l174 -205l-174 -209v-100z" />
<glyph unicode="&#xbc;" horiz-adv-x="1708" d="M193 1214q145 12 239 109v-760h66v856h-60q-41 -59 -106.5 -99t-138.5 -50v-56zM309 -49h82l952 1511h-81zM872 213h441v-213h65v213h146v55h-146v580h-96l-410 -580v-55zM946 268l363 512h4v-512h-367z" />
<glyph unicode="&#xbd;" horiz-adv-x="1708" d="M131 1214q145 12 240 109v-760h65v856h-59q-41 -59 -106.5 -99t-139.5 -50v-56zM248 -49h82l952 1511h-82zM989 0h615v55h-545q23 74 76 122t159 112q25 16 45 28q123 78 190.5 151t67.5 165q0 119 -80.5 180t-211.5 61q-152 0 -220.5 -79.5t-78.5 -229.5h65 q6 123 61.5 188.5t172.5 65.5q113 0 170 -54t57 -130q0 -86 -63.5 -146.5t-190.5 -138.5l-12 -8q-129 -80 -201 -154.5t-76 -187.5z" />
<glyph unicode="&#xbe;" horiz-adv-x="1708" d="M68 850q0 -154 88 -229.5t252 -75.5q135 0 224 65.5t89 190.5q0 86 -54.5 146.5t-146.5 68.5v4q82 10 131 64.5t49 129.5q0 113 -85 168.5t-207 55.5q-150 0 -233 -79t-85 -214h66q4 109 65.5 173t175.5 64q90 0 164 -44t74 -124q0 -94 -79 -134t-208 -40v-55h21 q10 2 20 2q117 0 191.5 -45t74.5 -141q0 -90 -76.5 -145.5t-181.5 -55.5q-123 0 -193.5 65.5t-70.5 184.5h-65zM406 -49h81l953 1511h-82zM934 213h440v-213h66v213h145v55h-145v580h-97l-409 -580v-55zM1008 268l362 512h4v-512h-366z" />
<glyph unicode="&#xbf;" horiz-adv-x="1062" d="M117 -35q0 -178 114.5 -272t286.5 -94q219 0 337 132t118 355h-78q0 -182 -96.5 -296t-274.5 -114q-139 0 -234 73t-95 216q0 96 52 172t150 168q88 84 134.5 177t46.5 243h-78q0 -84 -17.5 -148.5t-45 -111.5t-58.5 -78t-78 -72l-2 -2l-8 -8q-88 -86 -131 -155.5 t-43 -184.5zM483 885h105v211h-105v-211z" />
<glyph unicode="&#xc0;" horiz-adv-x="1214" d="M-25 0h97l186 469h700l185 -469h96l-577 1462h-99zM287 547l325 827h4l314 -827h-643zM375 1851l274 -286h76l-246 286h-104z" />
<glyph unicode="&#xc1;" horiz-adv-x="1214" d="M-25 0h97l186 469h700l185 -469h96l-577 1462h-99zM287 547l325 827h4l314 -827h-643zM489 1565h76l275 286h-105z" />
<glyph unicode="&#xc2;" horiz-adv-x="1214" d="M-25 0h97l186 469h700l185 -469h96l-577 1462h-99zM287 547l325 827h4l314 -827h-643zM330 1565h78l198 235l201 -235h78l-238 286h-82z" />
<glyph unicode="&#xc3;" horiz-adv-x="1214" d="M-25 0h97l186 469h700l185 -469h96l-577 1462h-99zM287 547l325 827h4l314 -827h-643zM311 1587h60q8 47 30.5 82t61.5 35q33 0 64.5 -14.5t78.5 -42.5l8 -7q43 -25 73 -39t61 -14q37 0 64.5 16.5t47.5 43.5q33 43 43 125h-59q-6 -47 -29.5 -82t-62.5 -35q-33 0 -107 43 q-23 12 -33 18l-14 8q-86 47 -129 48q-68 0 -110 -55.5t-48 -129.5z" />
<glyph unicode="&#xc4;" horiz-adv-x="1214" d="M-25 0h97l186 469h700l185 -469h96l-577 1462h-99zM287 547l325 827h4l314 -827h-643zM399 1571h90v211h-90v-211zM723 1571h90v211h-90v-211z" />
<glyph unicode="&#xc5;" horiz-adv-x="1214" d="M-25 0h97l186 469h700l185 -469h96l-577 1462h-99zM287 547l325 827h4l314 -827h-643zM393 1696q0 -84 59.5 -143.5t143.5 -59.5t143.5 59.5t59.5 143.5t-59.5 143t-143.5 59t-143.5 -59t-59.5 -143zM449 1696q0 61 43 104t104 43t104 -43t43 -104t-43 -104.5t-104 -43.5 t-104 43.5t-43 104.5z" />
<glyph unicode="&#xc6;" horiz-adv-x="1781" d="M-18 0h81l271 520h549v-520h868v78h-778v643h717v78h-717v585h776v78h-1004zM375 598l411 786h97v-786h-508z" />
<glyph unicode="&#xc7;" horiz-adv-x="1441" d="M74 731q0 -152 42 -285t122.5 -235t196.5 -165.5t261 -76.5l-90 -123l33 -26q53 25 109 24q35 0 67.5 -24.5t32.5 -69.5q0 -51 -38 -73.5t-91 -22.5q-41 0 -75 8t-77 25l-12 4l-23 -49q33 -18 80 -30.5t105 -12.5q98 0 153.5 36.5t55.5 114.5q0 74 -45 112t-109 38 q-35 0 -76 -19l-4 4l68 80h10q119 0 225.5 45t189.5 127t134 192.5t63 239.5h-90q-6 -100 -48 -195t-113.5 -170t-164 -118t-196.5 -43q-139 0 -253 53.5t-192.5 148.5t-119.5 220t-41 266t41 266t119.5 220.5t192.5 148.5t253 53q188 0 328.5 -106.5t169.5 -286.5h90 q-2 29 -25.5 100.5t-85 157.5t-180.5 149.5t-297 63.5q-160 0 -290 -58.5t-221 -163t-138 -244.5t-47 -300z" />
<glyph unicode="&#xc8;" horiz-adv-x="1146" d="M129 0h993v78h-903v643h840v78h-840v585h893v78h-983v-1462zM342 1851l274 -286h76l-246 286h-104z" />
<glyph unicode="&#xc9;" horiz-adv-x="1146" d="M129 0h993v78h-903v643h840v78h-840v585h893v78h-983v-1462zM457 1565h75l275 286h-105z" />
<glyph unicode="&#xca;" horiz-adv-x="1146" d="M129 0h993v78h-903v643h840v78h-840v585h893v78h-983v-1462zM297 1565h78l198 235l201 -235h78l-238 286h-82z" />
<glyph unicode="&#xcb;" horiz-adv-x="1146" d="M129 0h993v78h-903v643h840v78h-840v585h893v78h-983v-1462zM387 1571h90v211h-90v-211zM711 1571h90v211h-90v-211z" />
<glyph unicode="&#xcc;" horiz-adv-x="348" d="M-57 1851l274 -286h76l-246 286h-104zM129 0h90v1462h-90v-1462z" />
<glyph unicode="&#xcd;" horiz-adv-x="348" d="M57 1565h76l275 286h-105zM129 0h90v1462h-90v-1462z" />
<glyph unicode="&#xce;" horiz-adv-x="348" d="M-102 1565h77l199 235l201 -235h78l-238 286h-82zM129 0h90v1462h-90v-1462z" />
<glyph unicode="&#xcf;" horiz-adv-x="348" d="M-33 1571h90v211h-90v-211zM129 0h90v1462h-90v-1462zM291 1571h90v211h-90v-211z" />
<glyph unicode="&#xd0;" horiz-adv-x="1366" d="M-10 743h139v-743h475q172 0 301 55.5t213 154.5t125 232t41 291q0 147 -33.5 276.5t-111.5 231.5t-210 161.5t-321 59.5h-479v-651h-139v-68zM219 78v665h541v68h-541v573h375q104 0 201.5 -20.5t189.5 -87t150.5 -199.5t58.5 -344q0 -180 -50 -308t-134 -205 t-185.5 -109.5t-212.5 -32.5h-393z" />
<glyph unicode="&#xd1;" horiz-adv-x="1388" d="M129 0h90v1352h4l930 -1352h107v1462h-91v-1341h-4l-923 1341h-113v-1462zM399 1587h60q8 47 30.5 82t61.5 35q33 0 64.5 -14.5t78.5 -42.5l8 -7q43 -25 73 -39t61 -14q37 0 64.5 16.5t47.5 43.5q33 43 43 125h-59q-6 -47 -29.5 -82t-62.5 -35q-33 0 -107 43 q-23 12 -33 18l-14 8q-86 47 -129 48q-68 0 -109.5 -55.5t-48.5 -129.5z" />
<glyph unicode="&#xd2;" horiz-adv-x="1517" d="M63 731q0 -160 47.5 -300t138.5 -244.5t221 -163t290 -58.5t290 58.5t220 163t137 244.5t47 300t-47 300t-137 244.5t-220 163t-290 58.5t-290 -58.5t-221 -163t-138.5 -244.5t-47.5 -300zM154 731q0 141 41 266t119.5 220.5t192.5 148.5t253 53t251.5 -53t191.5 -148.5 t120 -220.5t41 -266q0 -139 -41 -265t-120 -221t-191.5 -148.5t-251.5 -53.5t-253 53.5t-192.5 148.5t-119.5 220t-41 266zM526 1851l275 -286h76l-246 286h-105z" />
<glyph unicode="&#xd3;" horiz-adv-x="1517" d="M63 731q0 -160 47.5 -300t138.5 -244.5t221 -163t290 -58.5t290 58.5t220 163t137 244.5t47 300t-47 300t-137 244.5t-220 163t-290 58.5t-290 -58.5t-221 -163t-138.5 -244.5t-47.5 -300zM154 731q0 141 41 266t119.5 220.5t192.5 148.5t253 53t251.5 -53t191.5 -148.5 t120 -220.5t41 -266q0 -139 -41 -265t-120 -221t-191.5 -148.5t-251.5 -53.5t-253 53.5t-192.5 148.5t-119.5 220t-41 266zM641 1565h76l274 286h-104z" />
<glyph unicode="&#xd4;" horiz-adv-x="1517" d="M63 731q0 -160 47.5 -300t138.5 -244.5t221 -163t290 -58.5t290 58.5t220 163t137 244.5t47 300t-47 300t-137 244.5t-220 163t-290 58.5t-290 -58.5t-221 -163t-138.5 -244.5t-47.5 -300zM154 731q0 141 41 266t119.5 220.5t192.5 148.5t253 53t251.5 -53t191.5 -148.5 t120 -220.5t41 -266q0 -139 -41 -265t-120 -221t-191.5 -148.5t-251.5 -53.5t-253 53.5t-192.5 148.5t-119.5 220t-41 266zM481 1565h78l199 235l200 -235h78l-237 286h-82z" />
<glyph unicode="&#xd5;" horiz-adv-x="1517" d="M63 731q0 -160 47.5 -300t138.5 -244.5t221 -163t290 -58.5t290 58.5t220 163t137 244.5t47 300t-47 300t-137 244.5t-220 163t-290 58.5t-290 -58.5t-221 -163t-138.5 -244.5t-47.5 -300zM154 731q0 141 41 266t119.5 220.5t192.5 148.5t253 53t251.5 -53t191.5 -148.5 t120 -220.5t41 -266q0 -139 -41 -265t-120 -221t-191.5 -148.5t-251.5 -53.5t-253 53.5t-192.5 148.5t-119.5 220t-41 266zM463 1587h59q8 47 30.5 82t61.5 35q33 0 65 -14.5t79 -42.5l8 -7q43 -25 72.5 -39t60.5 -14q37 0 64.5 16.5t48.5 43.5q33 43 43 125h-60 q-6 -47 -29.5 -82t-62.5 -35q-33 0 -106 43q-23 12 -33 18l-14 8q-86 47 -129 48q-68 0 -110 -55.5t-48 -129.5z" />
<glyph unicode="&#xd6;" horiz-adv-x="1517" d="M63 731q0 -160 47.5 -300t138.5 -244.5t221 -163t290 -58.5t290 58.5t220 163t137 244.5t47 300t-47 300t-137 244.5t-220 163t-290 58.5t-290 -58.5t-221 -163t-138.5 -244.5t-47.5 -300zM154 731q0 141 41 266t119.5 220.5t192.5 148.5t253 53t251.5 -53t191.5 -148.5 t120 -220.5t41 -266q0 -139 -41 -265t-120 -221t-191.5 -148.5t-251.5 -53.5t-253 53.5t-192.5 148.5t-119.5 220t-41 266zM551 1571h90v211h-90v-211zM874 1571h91v211h-91v-211z" />
<glyph unicode="&#xd7;" horiz-adv-x="1228" d="M162 119l53 -56l399 400l398 -400l55 56l-397 397l397 399l-55 56l-398 -400l-399 400l-53 -56l397 -399z" />
<glyph unicode="&#xd8;" horiz-adv-x="1517" d="M63 731q0 -152 43.5 -286t124.5 -236l-161 -176l53 -49l156 172q88 -92 210.5 -141.5t270.5 -49.5q160 0 290 58.5t220 163t137 244.5t47 300q0 156 -43 290t-127 236l143 156l-53 49l-139 -151q-90 90 -210 138t-265 48q-160 0 -290 -58.5t-221 -163t-138.5 -244.5 t-47.5 -300zM154 731q0 141 41 266t119.5 220.5t192.5 148.5t253 53q250 0 418 -172l-885 -973q-139 186 -139 457zM338 221l887 971q68 -92 103.5 -211t35.5 -250q0 -139 -41 -265t-120 -221t-191.5 -148.5t-251.5 -53.5q-129 0 -235.5 46t-186.5 132z" />
<glyph unicode="&#xd9;" horiz-adv-x="1376" d="M129 586q0 -100 16.5 -198.5t69.5 -196t167 -162t296 -64.5q160 0 270.5 46t176 130t94 196t28.5 249v876h-90v-876q0 -129 -25.5 -228.5t-81 -169t-147.5 -107.5t-225 -38q-147 0 -241.5 55.5t-140.5 140.5t-61.5 173t-15.5 174v876h-90v-876zM457 1851l274 -286h76 l-246 286h-104z" />
<glyph unicode="&#xda;" horiz-adv-x="1376" d="M129 586q0 -100 16.5 -198.5t69.5 -196t167 -162t296 -64.5q160 0 270.5 46t176 130t94 196t28.5 249v876h-90v-876q0 -129 -25.5 -228.5t-81 -169t-147.5 -107.5t-225 -38q-147 0 -241.5 55.5t-140.5 140.5t-61.5 173t-15.5 174v876h-90v-876zM571 1565h76l275 286h-105 z" />
<glyph unicode="&#xdb;" horiz-adv-x="1376" d="M129 586q0 -100 16.5 -198.5t69.5 -196t167 -162t296 -64.5q160 0 270.5 46t176 130t94 196t28.5 249v876h-90v-876q0 -129 -25.5 -228.5t-81 -169t-147.5 -107.5t-225 -38q-147 0 -241.5 55.5t-140.5 140.5t-61.5 173t-15.5 174v876h-90v-876zM412 1565h77l199 235 l201 -235h78l-238 286h-82z" />
<glyph unicode="&#xdc;" horiz-adv-x="1376" d="M129 586q0 -100 16.5 -198.5t69.5 -196t167 -162t296 -64.5q160 0 270.5 46t176 130t94 196t28.5 249v876h-90v-876q0 -129 -25.5 -228.5t-81 -169t-147.5 -107.5t-225 -38q-147 0 -241.5 55.5t-140.5 140.5t-61.5 173t-15.5 174v876h-90v-876zM481 1571h90v211h-90v-211 zM805 1571h90v211h-90v-211z" />
<glyph unicode="&#xdd;" horiz-adv-x="1175" d="M-43 1462l584 -850v-612h90v612l588 850h-101l-530 -774l-529 774h-102zM471 1565h76l274 286h-104z" />
<glyph unicode="&#xde;" horiz-adv-x="1214" d="M129 0h90v406h500q219 0 339 105t120 298q0 125 -41 207t-104.5 125t-135.5 59.5t-145 16.5h-533v245h-90v-1462zM219 483v656h526q102 0 171 -33t106 -85t51 -106.5t14 -103.5q0 -61 -19 -118.5t-61 -104.5t-111 -76t-163 -29h-514z" />
<glyph unicode="&#xdf;" horiz-adv-x="1024" d="M119 0h78v1100q0 154 72.5 236.5t222.5 82.5q133 0 220 -71.5t87 -200.5q0 -78 -30 -136.5t-82 -95t-119.5 -54t-143.5 -17.5v-68q102 0 181 -15.5t139.5 -53t93 -104t32.5 -165.5q0 -119 -37.5 -194.5t-96 -113.5t-117 -50t-117.5 -12h-78v-68h113q61 0 127.5 15.5 t132 59.5t108.5 134t43 229q0 162 -80 263.5t-235 119.5v4q123 27 183.5 110t60.5 212q0 166 -107.5 253t-277.5 87q-186 0 -279.5 -99.5t-93.5 -287.5v-1100z" />
<glyph unicode="&#xe0;" horiz-adv-x="1024" d="M66 272q0 -156 95 -226.5t257 -70.5q143 0 247.5 67t143.5 167h4v-55q0 -76 28.5 -115t112.5 -39q18 0 58 8h6v66q-37 -6 -57 -6q-47 0 -58.5 32.5t-11.5 94.5v608q0 78 -30 132t-82 85t-116.5 44t-140.5 13q-188 0 -290.5 -88t-110.5 -260h78q8 135 94 208t229 73 q84 0 142.5 -23.5t91 -58.5t46 -69t13.5 -56q0 -72 -9 -108t-43 -57.5t-103.5 -32.5t-206.5 -21q-76 -6 -141.5 -21.5t-122 -49.5t-90 -93.5t-33.5 -147.5zM143 272q0 115 73 171.5t216 72.5q37 6 119 12q111 8 171 21.5t91 48.5v-197q0 -35 -14.5 -90t-55.5 -117.5 t-120.5 -106.5t-202.5 -44q-133 0 -205 64.5t-72 164.5zM281 1497l274 -287h76l-246 287h-104z" />
<glyph unicode="&#xe1;" horiz-adv-x="1024" d="M66 272q0 -156 95 -226.5t257 -70.5q143 0 247.5 67t143.5 167h4v-55q0 -76 28.5 -115t112.5 -39q18 0 58 8h6v66q-37 -6 -57 -6q-47 0 -58.5 32.5t-11.5 94.5v608q0 78 -30 132t-82 85t-116.5 44t-140.5 13q-188 0 -290.5 -88t-110.5 -260h78q8 135 94 208t229 73 q84 0 142.5 -23.5t91 -58.5t46 -69t13.5 -56q0 -72 -9 -108t-43 -57.5t-103.5 -32.5t-206.5 -21q-76 -6 -141.5 -21.5t-122 -49.5t-90 -93.5t-33.5 -147.5zM143 272q0 115 73 171.5t216 72.5q37 6 119 12q111 8 171 21.5t91 48.5v-197q0 -35 -14.5 -90t-55.5 -117.5 t-120.5 -106.5t-202.5 -44q-133 0 -205 64.5t-72 164.5zM395 1210h76l274 287h-104z" />
<glyph unicode="&#xe2;" horiz-adv-x="1024" d="M66 272q0 -156 95 -226.5t257 -70.5q143 0 247.5 67t143.5 167h4v-55q0 -76 28.5 -115t112.5 -39q18 0 58 8h6v66q-37 -6 -57 -6q-47 0 -58.5 32.5t-11.5 94.5v608q0 78 -30 132t-82 85t-116.5 44t-140.5 13q-188 0 -290.5 -88t-110.5 -260h78q8 135 94 208t229 73 q84 0 142.5 -23.5t91 -58.5t46 -69t13.5 -56q0 -72 -9 -108t-43 -57.5t-103.5 -32.5t-206.5 -21q-76 -6 -141.5 -21.5t-122 -49.5t-90 -93.5t-33.5 -147.5zM143 272q0 115 73 171.5t216 72.5q37 6 119 12q111 8 171 21.5t91 48.5v-197q0 -35 -14.5 -90t-55.5 -117.5 t-120.5 -106.5t-202.5 -44q-133 0 -205 64.5t-72 164.5zM236 1210h77l199 236l201 -236h78l-238 287h-82z" />
<glyph unicode="&#xe3;" horiz-adv-x="1024" d="M66 272q0 -156 95 -226.5t257 -70.5q143 0 247.5 67t143.5 167h4v-55q0 -76 28.5 -115t112.5 -39q18 0 58 8h6v66q-37 -6 -57 -6q-47 0 -58.5 32.5t-11.5 94.5v608q0 78 -30 132t-82 85t-116.5 44t-140.5 13q-188 0 -290.5 -88t-110.5 -260h78q8 135 94 208t229 73 q84 0 142.5 -23.5t91 -58.5t46 -69t13.5 -56q0 -72 -9 -108t-43 -57.5t-103.5 -32.5t-206.5 -21q-76 -6 -141.5 -21.5t-122 -49.5t-90 -93.5t-33.5 -147.5zM143 272q0 115 73 171.5t216 72.5q37 6 119 12q111 8 171 21.5t91 48.5v-197q0 -35 -14.5 -90t-55.5 -117.5 t-120.5 -106.5t-202.5 -44q-133 0 -205 64.5t-72 164.5zM217 1233h59q8 47 31 82t62 35q33 0 64.5 -14.5t78.5 -43.5l8 -6q43 -25 73 -39t60 -14q37 0 64.5 16.5t48.5 42.5q33 43 43 125h-59q-6 -47 -30 -82t-63 -35q-33 0 -106 43q-23 12 -33 19l-14 8q-86 47 -129 47 q-68 0 -110 -55t-48 -129z" />
<glyph unicode="&#xe4;" horiz-adv-x="1024" d="M66 272q0 -156 95 -226.5t257 -70.5q143 0 247.5 67t143.5 167h4v-55q0 -76 28.5 -115t112.5 -39q18 0 58 8h6v66q-37 -6 -57 -6q-47 0 -58.5 32.5t-11.5 94.5v608q0 78 -30 132t-82 85t-116.5 44t-140.5 13q-188 0 -290.5 -88t-110.5 -260h78q8 135 94 208t229 73 q84 0 142.5 -23.5t91 -58.5t46 -69t13.5 -56q0 -72 -9 -108t-43 -57.5t-103.5 -32.5t-206.5 -21q-76 -6 -141.5 -21.5t-122 -49.5t-90 -93.5t-33.5 -147.5zM143 272q0 115 73 171.5t216 72.5q37 6 119 12q111 8 171 21.5t91 48.5v-197q0 -35 -14.5 -90t-55.5 -117.5 t-120.5 -106.5t-202.5 -44q-133 0 -205 64.5t-72 164.5zM305 1217h90v210h-90v-210zM629 1217h90v210h-90v-210z" />
<glyph unicode="&#xe5;" horiz-adv-x="1024" d="M66 272q0 -156 95 -226.5t257 -70.5q143 0 247.5 67t143.5 167h4v-55q0 -76 28.5 -115t112.5 -39q18 0 58 8h6v66q-37 -6 -57 -6q-47 0 -58.5 32.5t-11.5 94.5v608q0 78 -30 132t-82 85t-116.5 44t-140.5 13q-188 0 -290.5 -88t-110.5 -260h78q8 135 94 208t229 73 q84 0 142.5 -23.5t91 -58.5t46 -69t13.5 -56q0 -72 -9 -108t-43 -57.5t-103.5 -32.5t-206.5 -21q-76 -6 -141.5 -21.5t-122 -49.5t-90 -93.5t-33.5 -147.5zM143 272q0 115 73 171.5t216 72.5q37 6 119 12q111 8 171 21.5t91 48.5v-197q0 -35 -14.5 -90t-55.5 -117.5 t-120.5 -106.5t-202.5 -44q-133 0 -205 64.5t-72 164.5zM309 1311q0 -84 59.5 -143.5t143.5 -59.5t143.5 59.5t59.5 143.5t-59.5 143t-143.5 59t-143.5 -59t-59.5 -143zM365 1311q0 61 43 104t104 43t104 -43t43 -104t-43 -104.5t-104 -43.5t-104 43.5t-43 104.5z" />
<glyph unicode="&#xe6;" horiz-adv-x="1820" d="M66 268q0 -145 108.5 -219t267.5 -74q150 0 263.5 82t164.5 224h4q37 -147 150 -226.5t272 -79.5q178 0 298 100.5t147 274.5h-78q-23 -147 -120 -227t-247 -80q-182 0 -284.5 121t-102.5 307q0 6 2 23v22h842q0 14 2 33v31q0 213 -122 355t-337 142q-145 0 -247.5 -66.5 t-151.5 -201.5h-4q-6 76 -37 129t-81 83t-112.5 43t-138.5 13q-182 0 -291.5 -88t-121.5 -266h77q10 145 99.5 216t236.5 71q307 0 307 -246q0 -57 -21.5 -92t-59 -51.5t-81.5 -22.5t-114 -10q-72 -4 -106 -8q-68 -2 -133.5 -16.5t-123 -49.5t-92 -95.5t-34.5 -150.5z M143 268q0 125 81 183.5t216 66.5q29 2 97 6q137 10 204.5 22.5t85.5 45.5h4v-180q-2 -76 -33.5 -143.5t-86 -118t-124 -79t-145.5 -28.5q-123 0 -211 56.5t-88 168.5zM909 584q6 88 32 164.5t74 136t118.5 92.5t162.5 33q84 0 155 -33t121 -91.5t76.5 -136t26.5 -165.5 h-766z" />
<glyph unicode="&#xe7;" horiz-adv-x="1062" d="M68 537q0 -109 25.5 -206.5t80.5 -175t140 -124.5t200 -54l-98 -131l33 -26q53 25 108 24q35 0 67.5 -24.5t32.5 -69.5q0 -51 -37.5 -73.5t-91.5 -22.5q-41 0 -74.5 8t-76.5 25l-12 4l-23 -49q33 -18 80 -30.5t104 -12.5q98 0 153.5 36.5t55.5 114.5q0 74 -45 112 t-108 38q-35 0 -76 -19l-4 4l80 92q164 10 276.5 114t136.5 280h-77q-20 -145 -121 -236.5t-246 -91.5q-197 0 -301.5 135t-104.5 359q0 92 27 177t79 151.5t128 105.5t172 39q147 0 246.5 -74t109.5 -209h78q-16 172 -135 261t-299 89q-113 0 -204 -42t-153.5 -116.5 t-94 -173t-31.5 -208.5z" />
<glyph unicode="&#xe8;" horiz-adv-x="1062" d="M68 508q0 -231 122.5 -382t341.5 -151q188 0 306 98.5t149 282.5h-78q-27 -145 -127 -229t-250 -84q-184 0 -285.5 136t-101.5 337h850v21q2 12 2 18q0 109 -28.5 203t-87 166.5t-146.5 112.5t-203 40q-113 0 -200.5 -46t-146 -126t-88 -182t-29.5 -215zM145 584 q6 80 35 155.5t79 137t120 97.5t153 36q88 0 160 -35t121 -94.5t75.5 -136t29.5 -160.5h-773zM299 1497l274 -287h76l-246 287h-104z" />
<glyph unicode="&#xe9;" horiz-adv-x="1062" d="M68 508q0 -231 122.5 -382t341.5 -151q188 0 306 98.5t149 282.5h-78q-27 -145 -127 -229t-250 -84q-184 0 -285.5 136t-101.5 337h850v21q2 12 2 18q0 109 -28.5 203t-87 166.5t-146.5 112.5t-203 40q-113 0 -200.5 -46t-146 -126t-88 -182t-29.5 -215zM145 584 q6 80 35 155.5t79 137t120 97.5t153 36q88 0 160 -35t121 -94.5t75.5 -136t29.5 -160.5h-773zM414 1210h75l275 287h-105z" />
<glyph unicode="&#xea;" horiz-adv-x="1062" d="M68 508q0 -231 122.5 -382t341.5 -151q188 0 306 98.5t149 282.5h-78q-27 -145 -127 -229t-250 -84q-184 0 -285.5 136t-101.5 337h850v21q2 12 2 18q0 109 -28.5 203t-87 166.5t-146.5 112.5t-203 40q-113 0 -200.5 -46t-146 -126t-88 -182t-29.5 -215zM145 584 q6 80 35 155.5t79 137t120 97.5t153 36q88 0 160 -35t121 -94.5t75.5 -136t29.5 -160.5h-773zM254 1210h78l198 236l201 -236h78l-238 287h-82z" />
<glyph unicode="&#xeb;" horiz-adv-x="1062" d="M68 508q0 -231 122.5 -382t341.5 -151q188 0 306 98.5t149 282.5h-78q-27 -145 -127 -229t-250 -84q-184 0 -285.5 136t-101.5 337h850v21q2 12 2 18q0 109 -28.5 203t-87 166.5t-146.5 112.5t-203 40q-113 0 -200.5 -46t-146 -126t-88 -182t-29.5 -215zM145 584 q6 80 35 155.5t79 137t120 97.5t153 36q88 0 160 -35t121 -94.5t75.5 -136t29.5 -160.5h-773zM324 1217h90v210h-90v-210zM647 1217h90v210h-90v-210z" />
<glyph unicode="&#xec;" horiz-adv-x="344" d="M-59 1497l274 -287h76l-246 287h-104zM133 0h78v1053h-78v-1053z" />
<glyph unicode="&#xed;" horiz-adv-x="344" d="M55 1210h76l275 287h-105zM133 0h78v1053h-78v-1053z" />
<glyph unicode="&#xee;" horiz-adv-x="344" d="M-104 1210h77l199 236l201 -236h78l-238 287h-82zM133 0h78v1053h-78v-1053z" />
<glyph unicode="&#xef;" horiz-adv-x="344" d="M-35 1217h90v210h-90v-210zM133 0h78v1053h-78v-1053zM289 1217h90v210h-90v-210z" />
<glyph unicode="&#xf0;" horiz-adv-x="1099" d="M66 510q0 -236 123.5 -385.5t361.5 -149.5q231 0 356 150.5t125 384.5q0 250 -97 447.5t-294 355.5l223 125l-41 45l-235 -131q-98 80 -221 145l-58 -49q49 -25 103.5 -58.5t107.5 -74.5l-221 -123l43 -45l229 127q106 -84 190.5 -183.5t127.5 -201.5l-4 -4 q-70 84 -152 117.5t-182 33.5q-113 0 -204 -41t-154.5 -114.5t-95 -168t-31.5 -202.5zM143 510q0 90 27 173t79 147.5t129 101.5t173 37q190 0 296.5 -134.5t106.5 -324.5q0 -94 -24.5 -178t-73.5 -149.5t-126 -102.5t-179 -37q-100 0 -177 38t-128 103.5t-77 149.5t-26 176 z" />
<glyph unicode="&#xf1;" horiz-adv-x="1062" d="M115 0h78v569q0 197 102 319t276 122q100 0 163 -36t91.5 -90.5t36.5 -107.5t8 -110v-666h78v651q0 74 -8 138.5t-44 131t-115 111.5t-208 45q-127 0 -232 -67.5t-144 -182.5h-4v226h-78v-1053zM236 1233h59q8 47 30.5 82t61.5 35q33 0 64.5 -14.5t78.5 -43.5l9 -6 q43 -25 72.5 -39t60.5 -14q37 0 64.5 16.5t47.5 42.5q33 43 43 125h-59q-6 -47 -29.5 -82t-62.5 -35q-33 0 -107 43q-23 12 -32 19l-15 8q-86 47 -129 47q-68 0 -109.5 -55t-47.5 -129z" />
<glyph unicode="&#xf2;" horiz-adv-x="1099" d="M66 526q0 -113 32.5 -213t94 -176t152.5 -119t204 -43t203 43t153.5 120t95 176.5t31.5 211.5q0 113 -31.5 213.5t-94 176t-153.5 118.5t-204 43t-203 -43t-153.5 -118.5t-95 -176t-31.5 -213.5zM143 526q0 96 27 183.5t79 155t128 106.5t172 39t172 -39t128 -106.5 t78.5 -154.5t26.5 -184q0 -96 -26.5 -183t-78.5 -154.5t-128 -106.5t-172 -39t-172 39t-128 106.5t-79 154.5t-27 183zM317 1497l275 -287h76l-246 287h-105z" />
<glyph unicode="&#xf3;" horiz-adv-x="1099" d="M66 526q0 -113 32.5 -213t94 -176t152.5 -119t204 -43t203 43t153.5 120t95 176.5t31.5 211.5q0 113 -31.5 213.5t-94 176t-153.5 118.5t-204 43t-203 -43t-153.5 -118.5t-95 -176t-31.5 -213.5zM143 526q0 96 27 183.5t79 155t128 106.5t172 39t172 -39t128 -106.5 t78.5 -154.5t26.5 -184q0 -96 -26.5 -183t-78.5 -154.5t-128 -106.5t-172 -39t-172 39t-128 106.5t-79 154.5t-27 183zM432 1210h76l274 287h-104z" />
<glyph unicode="&#xf4;" horiz-adv-x="1099" d="M66 526q0 -113 32.5 -213t94 -176t152.5 -119t204 -43t203 43t153.5 120t95 176.5t31.5 211.5q0 113 -31.5 213.5t-94 176t-153.5 118.5t-204 43t-203 -43t-153.5 -118.5t-95 -176t-31.5 -213.5zM143 526q0 96 27 183.5t79 155t128 106.5t172 39t172 -39t128 -106.5 t78.5 -154.5t26.5 -184q0 -96 -26.5 -183t-78.5 -154.5t-128 -106.5t-172 -39t-172 39t-128 106.5t-79 154.5t-27 183zM272 1210h78l199 236l201 -236h77l-237 287h-82z" />
<glyph unicode="&#xf5;" horiz-adv-x="1099" d="M66 526q0 -113 32.5 -213t94 -176t152.5 -119t204 -43t203 43t153.5 120t95 176.5t31.5 211.5q0 113 -31.5 213.5t-94 176t-153.5 118.5t-204 43t-203 -43t-153.5 -118.5t-95 -176t-31.5 -213.5zM143 526q0 96 27 183.5t79 155t128 106.5t172 39t172 -39t128 -106.5 t78.5 -154.5t26.5 -184q0 -96 -26.5 -183t-78.5 -154.5t-128 -106.5t-172 -39t-172 39t-128 106.5t-79 154.5t-27 183zM254 1233h59q8 47 31 82t62 35q33 0 64.5 -14.5t78.5 -43.5l8 -6q43 -25 72.5 -39t60.5 -14q37 0 64.5 16.5t48.5 42.5q33 43 43 125h-60 q-6 -47 -29.5 -82t-62.5 -35q-33 0 -106 43q-23 12 -33 19l-14 8q-86 47 -129 47q-68 0 -110 -55t-48 -129z" />
<glyph unicode="&#xf6;" horiz-adv-x="1099" d="M66 526q0 -113 32.5 -213t94 -176t152.5 -119t204 -43t203 43t153.5 120t95 176.5t31.5 211.5q0 113 -31.5 213.5t-94 176t-153.5 118.5t-204 43t-203 -43t-153.5 -118.5t-95 -176t-31.5 -213.5zM143 526q0 96 27 183.5t79 155t128 106.5t172 39t172 -39t128 -106.5 t78.5 -154.5t26.5 -184q0 -96 -26.5 -183t-78.5 -154.5t-128 -106.5t-172 -39t-172 39t-128 106.5t-79 154.5t-27 183zM342 1217h90v210h-90v-210zM666 1217h90v210h-90v-210z" />
<glyph unicode="&#xf7;" horiz-adv-x="1228" d="M98 477h1032v78h-1032v-78zM512 104q0 -43 30.5 -73.5t73.5 -30.5t75 30.5t32 73.5q0 45 -32 76t-75 31t-73.5 -31t-30.5 -76zM512 926q0 -43 30.5 -74t73.5 -31t75 31t32 74q0 45 -32 75.5t-75 30.5t-73.5 -30.5t-30.5 -75.5z" />
<glyph unicode="&#xf8;" horiz-adv-x="1099" d="M51 47l49 -47l111 117q61 -66 147 -104t191 -38q113 0 203 43t153.5 120t95 176.5t31.5 211.5q0 207 -100 351l119 127l-50 47l-112 -119q-59 70 -146.5 107.5t-193.5 37.5q-113 0 -203 -43t-153.5 -118.5t-95 -176t-31.5 -213.5q0 -211 102 -354zM143 526q0 96 27 183.5 t79 155t128 106.5t172 39q90 0 163.5 -36t123.5 -97l-613 -648q-80 123 -80 297zM264 172l613 647q78 -123 77 -293q0 -96 -26.5 -183t-78.5 -154.5t-128 -106.5t-172 -39q-176 0 -285 129z" />
<glyph unicode="&#xf9;" horiz-adv-x="1062" d="M115 401q0 -74 8 -138t44 -130.5t114.5 -112t207.5 -45.5q127 0 232.5 68t144.5 182h4v-225h78v1053h-78v-570q0 -197 -102 -318.5t-276 -121.5q-100 0 -163 36t-91.5 90t-36.5 107.5t-8 110.5v666h-78v-652zM299 1497l274 -287h76l-246 287h-104z" />
<glyph unicode="&#xfa;" horiz-adv-x="1062" d="M115 401q0 -74 8 -138t44 -130.5t114.5 -112t207.5 -45.5q127 0 232.5 68t144.5 182h4v-225h78v1053h-78v-570q0 -197 -102 -318.5t-276 -121.5q-100 0 -163 36t-91.5 90t-36.5 107.5t-8 110.5v666h-78v-652zM414 1210h75l275 287h-105z" />
<glyph unicode="&#xfb;" horiz-adv-x="1062" d="M115 401q0 -74 8 -138t44 -130.5t114.5 -112t207.5 -45.5q127 0 232.5 68t144.5 182h4v-225h78v1053h-78v-570q0 -197 -102 -318.5t-276 -121.5q-100 0 -163 36t-91.5 90t-36.5 107.5t-8 110.5v666h-78v-652zM254 1210h78l198 236l201 -236h78l-238 287h-82z" />
<glyph unicode="&#xfc;" horiz-adv-x="1062" d="M115 401q0 -74 8 -138t44 -130.5t114.5 -112t207.5 -45.5q127 0 232.5 68t144.5 182h4v-225h78v1053h-78v-570q0 -197 -102 -318.5t-276 -121.5q-100 0 -163 36t-91.5 90t-36.5 107.5t-8 110.5v666h-78v-652zM324 1217h90v210h-90v-210zM647 1217h90v210h-90v-210z" />
<glyph unicode="&#xfd;" horiz-adv-x="909" d="M-12 1053l440 -1047q-43 -119 -65.5 -173t-43.5 -75q-39 -39 -87 -53t-132 -14v-68q100 0 153.5 8.5t92.5 38.5q31 25 57.5 74t65.5 143l451 1166h-89l-360 -961l-391 961h-92zM338 1210h76l274 287h-104z" />
<glyph unicode="&#xfe;" d="M133 -377h78v596h4q45 -123 145.5 -183.5t237.5 -60.5q233 0 353 149.5t120 399.5q0 115 -28.5 214.5t-88 176t-148.5 119.5t-208 43q-82 0 -148.5 -25.5t-113.5 -65.5t-77 -86t-44 -89h-4v651h-78v-1839zM213 524q0 98 21.5 185.5t67.5 155t120 106.5t176 39t178 -40 t124 -109.5t70.5 -157t22.5 -179.5q0 -100 -23.5 -187t-72.5 -152.5t-124 -103.5t-175 -38q-106 0 -182 39t-120 105.5t-63.5 151.5t-19.5 185z" />
<glyph unicode="&#xff;" horiz-adv-x="909" d="M-12 1053l440 -1047q-43 -119 -65.5 -173t-43.5 -75q-39 -39 -87 -53t-132 -14v-68q100 0 153.5 8.5t92.5 38.5q31 25 57.5 74t65.5 143l451 1166h-89l-360 -961l-391 961h-92zM248 1217h90v210h-90v-210zM571 1217h91v210h-91v-210z" />
<glyph unicode="&#x152;" horiz-adv-x="2162" d="M63 725q0 -160 45.5 -299t131.5 -242.5t213 -161t284 -57.5q152 0 264.5 49t167.5 121h5v-135h958v78h-868v643h774v78h-774v585h864v78h-954v-135q-76 82 -189 126t-231 44q-162 0 -292 -60.5t-219 -168t-134.5 -246.5t-45.5 -297zM154 725q0 141 39.5 266t117.5 222.5 t192.5 151.5t258.5 54q162 0 295 -90q43 -29 80 -68.5t37 -76.5v-924q0 -20 -17.5 -43.5t-45.5 -46.5t-56.5 -41t-53.5 -31q-57 -31 -121.5 -43t-136.5 -12q-145 0 -257.5 53.5t-186.5 146.5t-109.5 217t-35.5 265z" />
<glyph unicode="&#x153;" horiz-adv-x="1820" d="M66 512q0 -109 24.5 -205t77.5 -171t140 -118t206 -43q158 0 255 79t138 231h4q29 -147 136.5 -228.5t273.5 -81.5q172 0 279.5 98.5t146.5 272.5h-78q-33 -141 -121 -222t-227 -81q-94 0 -165 35t-117 94t-68.5 137t-22.5 166q0 10 2 21v20h805v23l2 20 q0 104 -26.5 197.5t-80 166t-136 113.5t-193.5 41q-324 0 -408 -311h-4q-33 147 -135 229t-254 82q-115 0 -201 -44t-142 -123t-83.5 -181t-27.5 -217zM143 512q0 92 19.5 179t62.5 160t117 116t176 43q96 0 165 -40t111 -109.5t60 -158t18 -190.5q0 -88 -16 -169 t-56 -149.5t-111 -109.5t-173 -41q-96 0 -166.5 38t-117 102.5t-68 149.5t-21.5 179zM950 584q0 182 98.5 304t272.5 122q170 0 263 -124t93 -302h-727z" />
<glyph unicode="&#x178;" horiz-adv-x="1175" d="M-43 1462l584 -850v-612h90v612l588 850h-101l-530 -774l-529 774h-102zM381 1571h90v211h-90v-211zM705 1571h90v211h-90v-211z" />
<glyph unicode="&#x2c6;" horiz-adv-x="342" d="M-106 1210h77l199 236l201 -236h78l-238 287h-82z" />
<glyph unicode="&#x2dc;" horiz-adv-x="342" d="M-125 1233h59q8 47 31 82t62 35q33 0 64.5 -14.5t78.5 -43.5l8 -6q43 -25 73 -39t60 -14q37 0 64.5 16.5t48.5 42.5q33 43 43 125h-59q-6 -47 -30 -82t-63 -35q-33 0 -106 43q-23 12 -33 19l-14 8q-86 47 -129 47q-68 0 -110 -55t-48 -129z" />
<glyph unicode="&#x2000;" horiz-adv-x="949" />
<glyph unicode="&#x2001;" horiz-adv-x="1898" />
<glyph unicode="&#x2002;" horiz-adv-x="949" />
<glyph unicode="&#x2003;" horiz-adv-x="1898" />
<glyph unicode="&#x2004;" horiz-adv-x="632" />
<glyph unicode="&#x2005;" horiz-adv-x="474" />
<glyph unicode="&#x2006;" horiz-adv-x="316" />
<glyph unicode="&#x2007;" horiz-adv-x="316" />
<glyph unicode="&#x2008;" horiz-adv-x="237" />
<glyph unicode="&#x2009;" horiz-adv-x="379" />
<glyph unicode="&#x200a;" horiz-adv-x="105" />
<glyph unicode="&#x2010;" horiz-adv-x="720" d="M141 518h439v78h-439v-78z" />
<glyph unicode="&#x2011;" horiz-adv-x="720" d="M141 518h439v78h-439v-78z" />
<glyph unicode="&#x2012;" horiz-adv-x="720" d="M141 518h439v78h-439v-78z" />
<glyph unicode="&#x2013;" horiz-adv-x="1024" d="M0 518h1024v78h-1024v-78z" />
<glyph unicode="&#x2014;" horiz-adv-x="2048" d="M266 518h1516v78h-1516v-78z" />
<glyph unicode="&#x2018;" horiz-adv-x="417" d="M162 993h104v211h-43q0 59 15.5 115.5t54.5 75.5v67q-70 -25 -100.5 -95.5t-30.5 -162.5v-211z" />
<glyph unicode="&#x2019;" horiz-adv-x="417" d="M125 993q70 27 100.5 96.5t30.5 161.5v211h-104v-211h43q0 -59 -15.5 -115.5t-54.5 -74.5v-68z" />
<glyph unicode="&#x201a;" horiz-adv-x="417" d="M125 -190v-68q70 25 100.5 95.5t30.5 162.5v211h-104v-211h43q0 -59 -15.5 -115.5t-54.5 -74.5z" />
<glyph unicode="&#x201c;" horiz-adv-x="645" d="M131 993h105v211h-43q0 59 15 115.5t54 75.5v67q-70 -25 -100.5 -95.5t-30.5 -162.5v-211zM389 993h105v211h-43q0 59 15 115.5t54 75.5v67q-70 -25 -100.5 -95.5t-30.5 -162.5v-211z" />
<glyph unicode="&#x201d;" horiz-adv-x="645" d="M125 993q70 27 100.5 96.5t30.5 161.5v211h-104v-211h43q0 -59 -15.5 -115.5t-54.5 -74.5v-68zM383 993q70 27 100.5 96.5t30.5 161.5v211h-104v-211h43q0 -59 -15.5 -115.5t-54.5 -74.5v-68z" />
<glyph unicode="&#x201e;" horiz-adv-x="645" d="M125 -190v-68q70 25 100.5 95.5t30.5 162.5v211h-104v-211h43q0 -59 -15.5 -115.5t-54.5 -74.5zM383 -190v-68q70 25 100.5 95.5t30.5 162.5v211h-104v-211h43q0 -59 -15.5 -115.5t-54.5 -74.5z" />
<glyph unicode="&#x2022;" horiz-adv-x="1024" d="M147 731q0 -76 29 -142.5t79 -116.5t116.5 -78.5t140.5 -28.5t141.5 27.5t118.5 78.5t79 118.5t28 141.5q0 76 -28 141.5t-79 116.5t-117.5 79t-142.5 28t-142.5 -28t-116.5 -78t-78 -116.5t-28 -142.5z" />
<glyph unicode="&#x2026;" horiz-adv-x="2048" d="M289 0h104v211h-104v-211zM971 0h104v211h-104v-211zM1653 0h104v211h-104v-211z" />
<glyph unicode="&#x202f;" horiz-adv-x="379" />
<glyph unicode="&#x2039;" horiz-adv-x="530" d="M137 516l234 -268v100l-174 209l174 205v104l-234 -268v-82z" />
<glyph unicode="&#x203a;" horiz-adv-x="530" d="M160 248l233 268v82l-233 268v-104l174 -205l-174 -209v-100z" />
<glyph unicode="&#x205f;" horiz-adv-x="474" />
<glyph unicode="&#x2122;" horiz-adv-x="2027" d="M174 1395h295v-777h66v777h292v67h-653v-67zM989 618h66v777h6l342 -777h37l342 777h6v-777h65v844h-120l-312 -708l-311 708h-121v-844z" />
<glyph unicode="&#x25fc;" horiz-adv-x="1054" d="M0 0v1055h1055v-1055h-1055z" />
</font>
</defs>
</svg>
